<?xml version="1.0" standalone="no"?>
<!DOCTYPE svg PUBLIC "-//W3C//DTD SVG 1.1//EN" "http://www.w3.org/Graphics/SVG/1.1/DTD/svg11.dtd" >
<svg xmlns="http://www.w3.org/2000/svg">
<metadata></metadata>
<defs>
<font id="motifmedium" horiz-adv-x="1236" >
<font-face units-per-em="2048" ascent="1638" descent="-410" />
<missing-glyph horiz-adv-x="493" />
<glyph unicode="&#xd;" horiz-adv-x="493" />
<glyph unicode=" "  horiz-adv-x="493" />
<glyph unicode="&#x09;" horiz-adv-x="493" />
<glyph unicode="&#xa0;" horiz-adv-x="493" />
<glyph unicode="!" horiz-adv-x="643" d="M156 137q0 75 48 122.5t122 47.5t121 -47.5t47 -122.5q0 -74 -47.5 -122t-120.5 -48q-74 0 -122 48.5t-48 121.5zM201 1434h252l-15 -977h-225z" />
<glyph unicode="&#x22;" horiz-adv-x="944" d="M145 1524h234l-29 -584h-178zM567 1524h234l-29 -584h-178z" />
<glyph unicode="#" horiz-adv-x="1400" d="M70 383v190h284l54 295h-244v191h278l70 375h205l-70 -375h248l70 375h202l-69 -375h227v-191h-258l-57 -295h223v-190h-258l-72 -381l-203 -2l72 383h-248l-73 -383h-203l71 383h-249zM559 573h246l55 295h-246z" />
<glyph unicode="$" horiz-adv-x="1140" d="M72 307l225 137q33 -89 90.5 -151.5t138.5 -81.5v416l-16 4q-61 19 -108 38t-104 54t-94.5 77t-63 107t-25.5 144q0 158 112.5 274.5t298.5 134.5v189h142v-193q147 -18 240 -94.5t157 -212.5l-221 -119q-58 155 -176 195v-394h2q67 -18 119.5 -38.5t106 -56t88.5 -81 t57 -113t22 -151.5q0 -162 -106.5 -275t-288.5 -139v-194h-142v190q-155 12 -272 96t-182 238zM373 1059q0 -125 153 -182v356q-68 -14 -110.5 -61.5t-42.5 -112.5zM668 215q63 19 101 64.5t38 103.5q0 70 -36 115t-103 77v-360z" />
<glyph unicode="%" horiz-adv-x="1654" d="M115 1137q0 132 97.5 228.5t233.5 96.5q133 0 230.5 -96.5t97.5 -228.5q0 -136 -97 -235t-231 -99q-136 0 -233.5 98.5t-97.5 235.5zM154 0l1103 1434h244l-1102 -1434h-245zM295 1135q0 -63 43.5 -106.5t105.5 -43.5q60 0 103 43.5t43 106.5q0 60 -43 102.5t-103 42.5 q-62 0 -105.5 -42.5t-43.5 -102.5zM887 303q0 134 98 230t234 96q134 0 230.5 -96.5t96.5 -229.5q0 -136 -96.5 -234t-230.5 -98q-137 0 -234.5 97.5t-97.5 234.5zM1073 301q0 -60 42.5 -101.5t103.5 -41.5q57 0 98 41.5t41 101.5q0 58 -41 99.5t-98 41.5q-61 0 -103.5 -41 t-42.5 -100z" />
<glyph unicode="&#x26;" horiz-adv-x="1441" d="M121 362q0 234 282 416q-157 176 -157 328q0 158 112 253t283 95q177 0 284.5 -93t104.5 -245q3 -104 -60 -185.5t-218 -195.5l231 -264l205 221l162 -157l-228 -236l252 -289v-10h-282l-129 158q-44 -45 -76.5 -72t-82 -55.5t-111.5 -42t-140 -13.5q-192 0 -312 108 t-120 279zM381 375q0 -76 56 -130.5t126 -54.5q73 0 128 34t106 98l-250 278q-86 -57 -126 -107.5t-40 -117.5zM489 1108q0 -36 20 -77.5t39.5 -66.5t59.5 -71q97 64 136.5 110t39.5 111q0 61 -40 100t-103 39q-69 0 -110.5 -40t-41.5 -105z" />
<glyph unicode="'" horiz-adv-x="522" d="M141 1526h236l-29 -584h-178z" />
<glyph unicode="(" horiz-adv-x="858" d="M117 662q1 288 109 545.5t302 443.5h246q-217 -229 -316.5 -472.5t-99.5 -516.5q0 -275 99.5 -519t316.5 -475h-246q-194 186 -302 444.5t-109 549.5z" />
<glyph unicode=")" horiz-adv-x="858" d="M94 -332q217 230 315.5 474.5t98.5 519.5q0 273 -99 516.5t-315 472.5h244q195 -186 303 -443t109 -546q-1 -291 -109 -549.5t-303 -444.5h-244z" />
<glyph unicode="*" horiz-adv-x="1093" d="M119 885l254 143l-254 141l94 160l248 -151l-4 290h182l-2 -290l244 151l94 -160l-256 -141l256 -143l-94 -162l-244 154l2 -287h-182l4 287l-248 -152z" />
<glyph unicode="+" horiz-adv-x="1163" d="M98 623v223h367v368h231v-368h367v-223h-367v-371h-231v371h-367z" />
<glyph unicode="," horiz-adv-x="569" d="M98 -182q167 61 183 192q-12 -4 -31 -4q-64 0 -105 46t-41 110q0 67 47 115.5t125 48.5q79 0 127 -56.5t48 -148.5q0 -69 -16.5 -134.5t-54.5 -131.5t-110 -120t-172 -85v168z" />
<glyph unicode="-" horiz-adv-x="813" d="M98 520v223h615v-223h-615z" />
<glyph unicode="." horiz-adv-x="589" d="M129 156q0 75 49 123.5t123 48.5t122 -48.5t48 -123.5q0 -72 -48.5 -121t-121.5 -49t-122.5 49t-49.5 121z" />
<glyph unicode="/" horiz-adv-x="935" d="M20 -41l629 1516h266l-628 -1516h-267z" />
<glyph unicode="0" horiz-adv-x="1316" d="M109 717q0 216 65.5 383.5t192 264.5t295.5 97q168 0 293 -97t189 -264.5t64 -383.5q0 -219 -64 -386.5t-188.5 -263.5t-293.5 -96q-170 0 -296 95.5t-191.5 264t-65.5 386.5zM375 717q0 -234 71.5 -365t215.5 -131q142 0 212 130.5t70 365.5q0 233 -70 364t-212 131 q-144 0 -215.5 -131.5t-71.5 -363.5z" />
<glyph unicode="1" horiz-adv-x="864" d="M72 877v284l383 273h225v-1434h-250v1128l-352 -256z" />
<glyph unicode="2" horiz-adv-x="1120" d="M131 0v266l258 238q83 76 138.5 133t103.5 118.5t71 118t23 111.5q1 106 -65 166.5t-175 60.5q-182 0 -329 -161l-9 2v286q163 123 371 123q206 0 340.5 -118t134.5 -326q0 -161 -84.5 -297.5t-271.5 -302.5l-219 -197h598v-221h-885z" />
<glyph unicode="3" horiz-adv-x="1103" d="M115 86v274l6 2q156 -159 379 -159q111 0 181.5 56t70.5 161q0 104 -77.5 151t-209.5 47h-111v224h111q108 0 180 47.5t72 140.5q0 97 -69.5 148t-182.5 51q-88 0 -172.5 -37t-147.5 -100l-6 4v260q159 106 365 106q208 0 338.5 -100t130.5 -277q1 -116 -53.5 -197.5 t-145.5 -129.5q103 -46 169.5 -137.5t66.5 -227.5q-1 -102 -40.5 -183.5t-107.5 -133t-156 -78.5t-188 -27q-237 0 -403 115z" />
<glyph unicode="4" horiz-adv-x="1169" d="M37 283v186l620 965h269v-928h182v-223h-182v-283h-246v283h-643zM315 506h381l2 594z" />
<glyph unicode="5" horiz-adv-x="1124" d="M37 240l182 161l8 2q109 -196 299 -196q64 0 121 26t97 84t40 138q0 83 -41.5 144t-98.5 87.5t-118 26.5q-137 0 -227 -97l-184 86l106 732h725v-228l-528 2l-47 -317q81 43 211 43q93 0 177.5 -33.5t148 -94t100 -152.5t34.5 -201q-3 -222 -144.5 -352t-371.5 -130 q-301 0 -489 269z" />
<glyph unicode="6" horiz-adv-x="1204" d="M119 467q0 177 112 362l369 605h293l-348 -537q79 27 162 27q85 0 162 -32t136.5 -89t94.5 -144t35 -190q0 -102 -34.5 -192t-97.5 -159t-159.5 -109t-214.5 -40q-115 0 -212 40.5t-161.5 109t-100.5 158.5t-36 190zM377 461q0 -51 15 -98t44 -86.5t79 -63t114 -23.5 q124 0 186 79t62 196t-67.5 193.5t-180.5 76.5q-114 0 -183 -77t-69 -197z" />
<glyph unicode="7" horiz-adv-x="1007" d="M57 1190v244h942v-213l-567 -1221h-289l572 1190h-658z" />
<glyph unicode="8" horiz-adv-x="1226" d="M98 412q0 66 21.5 124.5t56.5 101t72.5 72.5t77.5 50q-199 117 -199 313q0 169 131.5 279t353.5 110t355 -110.5t133 -278.5q0 -110 -52.5 -181.5t-150.5 -131.5q104 -49 165.5 -136.5t61.5 -211.5q0 -196 -141 -317.5t-373 -121.5q-231 0 -371.5 121.5t-140.5 317.5z M358 424q0 -105 71 -169.5t181 -64.5t181 64.5t71 169.5q0 104 -69.5 171t-182.5 67t-182.5 -67t-69.5 -171zM387 1053q0 -91 62.5 -147t162.5 -56t162 56t62 147q0 92 -62.5 151.5t-161.5 59.5q-100 0 -162.5 -59.5t-62.5 -151.5z" />
<glyph unicode="9" horiz-adv-x="1204" d="M86 971q0 101 34.5 190t97.5 156.5t159.5 107t214.5 39.5q115 0 212 -40t161.5 -108.5t100.5 -158.5t36 -190q0 -183 -113 -363l-377 -604h-293l351 526q-57 -16 -142 -16q-119 0 -219 55t-161.5 161.5t-61.5 244.5zM344 969q0 -118 67.5 -194.5t180.5 -76.5 q114 0 183 77t69 198q0 52 -15 98.5t-44 86t-79 62.5t-114 23q-125 0 -186.5 -77.5t-61.5 -196.5z" />
<glyph unicode=":" horiz-adv-x="604" d="M135 156q0 75 49 123.5t123 48.5t123 -48.5t49 -123.5q0 -72 -49.5 -121t-122.5 -49t-122.5 49t-49.5 121zM135 887q0 75 49 124.5t123 49.5t123 -49.5t49 -124.5q0 -72 -49.5 -121t-122.5 -49t-122.5 49t-49.5 121z" />
<glyph unicode=";" horiz-adv-x="595" d="M117 887q0 75 49 124.5t123 49.5q72 0 121 -49.5t49 -124.5q0 -72 -49 -121t-121 -49q-73 0 -122.5 49t-49.5 121zM123 -182q166 60 182 192q-12 -4 -31 -4q-64 0 -104.5 46t-40.5 110q0 67 47 115.5t125 48.5q79 0 126.5 -56t47.5 -149q0 -69 -16.5 -134t-54 -131.5 t-109.5 -120.5t-172 -85v168z" />
<glyph unicode="&#x3c;" horiz-adv-x="1163" d="M106 618v228l965 338v-228l-676 -221l676 -219v-233z" />
<glyph unicode="=" horiz-adv-x="1163" d="M98 365v223h965v-223h-965zM98 821v223h965v-223h-965z" />
<glyph unicode="&#x3e;" horiz-adv-x="1163" d="M98 283v233l674 219l-674 221v228l965 -338v-228z" />
<glyph unicode="?" horiz-adv-x="935" d="M2 1182q144 278 440 278q94 -1 171.5 -30t128.5 -79t78.5 -115.5t27.5 -139.5q0 -67 -16.5 -122t-43.5 -91.5t-59.5 -67.5t-65 -58.5t-59.5 -56t-44 -68t-17 -87.5v-82h-230v98q2 90 32.5 158t72.5 108t83 74.5t70 77t29 96.5q0 70 -46 114t-114 46q-151 3 -229 -184h-4z M268 137q0 74 49 122t123 48t121 -47.5t47 -122.5q0 -74 -47.5 -122t-120.5 -48q-74 0 -123 48.5t-49 121.5z" />
<glyph unicode="@" horiz-adv-x="2029" d="M100 539q0 202 70.5 374t194 291t293.5 185.5t366 66.5q274 0 481 -113t318.5 -319t111.5 -477q0 -240 -130.5 -397.5t-323.5 -157.5q-137 0 -206 58t-83 169q-30 -78 -109 -133t-202 -55q-117 0 -204.5 71.5t-124.5 189t-15 251.5q34 208 160 337.5t302 129.5 q96 0 165.5 -46.5t92.5 -127.5l25 139h193l-95 -594q-15 -93 17 -149t94 -56q93 0 162 108t69 263q0 162 -52 297t-144.5 228t-221.5 144.5t-280 51.5q-145 0 -273 -53t-221.5 -147.5t-147.5 -231.5t-54 -297q0 -178 53.5 -319t148.5 -230.5t221 -136t275 -46.5 q138 0 256 43v-210q-134 -31 -256 -31q-197 0 -366 63.5t-293.5 180.5t-195.5 293.5t-71 392.5zM758 522q-18 -124 24 -203t136 -79t166.5 80t89.5 204q17 130 -26 205.5t-136 75.5q-97 0 -165 -77.5t-89 -205.5z" />
<glyph unicode="A" horiz-adv-x="1427" d="M57 0l500 1434h315l498 -1434h-274l-113 344h-547l-112 -344h-267zM508 561h403l-200 617z" />
<glyph unicode="B" horiz-adv-x="1323" d="M190 0v1434h515q213 0 332.5 -97t119.5 -278q0 -199 -180 -314q96 -44 157.5 -127t61.5 -204q0 -88 -24.5 -158.5t-67.5 -117.5t-104.5 -78.5t-133 -45.5t-155.5 -14h-521zM440 219h262q114 0 177 54t63 153q0 87 -65 139.5t-162 52.5h-275v-399zM440 825h256 q98 0 154.5 56t56.5 139q0 89 -61 141.5t-176 52.5h-230v-389z" />
<glyph unicode="C" horiz-adv-x="1409" d="M109 717q0 167 60.5 308.5t163 236t239.5 147.5t290 53q251 0 414 -110v-295l-4 -2q-93 88 -187.5 127t-218.5 39q-133 0 -245.5 -62.5t-181 -179t-68.5 -262.5q0 -147 68.5 -263.5t181 -178.5t245.5 -62q127 0 216.5 36t187.5 130l4 -2v-299q-164 -107 -412 -107 q-154 0 -291 52.5t-239.5 147.5t-162.5 236.5t-60 309.5z" />
<glyph unicode="D" horiz-adv-x="1521" d="M190 0v1434h494q153 0 286 -48t232.5 -137t157 -226t57.5 -306t-57.5 -306.5t-157 -226.5t-232 -136.5t-284.5 -47.5h-496zM442 227h211q106 0 196 30.5t158.5 90t107 153.5t38.5 214q0 239 -135.5 365t-364.5 126h-211v-979z" />
<glyph unicode="E" horiz-adv-x="1196" d="M190 0v1434h873v-228h-621v-366h592v-228h-592v-385h621v-227h-873z" />
<glyph unicode="F" horiz-adv-x="1122" d="M190 0v1434h846v-228h-594v-375h553v-227h-553v-604h-252z" />
<glyph unicode="G" horiz-adv-x="1603" d="M106 713q0 -136 37.5 -255t105 -207.5t159 -152t201 -95.5t229.5 -32q167 0 295.5 51t209.5 145.5t122 224t42 290.5q0 58 -6 98h-770v-221h500q-2 -154 -103.5 -251t-289.5 -97q-95 0 -180 36.5t-148.5 101t-101 158.5t-37.5 204q0 154 73 270t189.5 173.5t255.5 57.5 q157 0 286 -67.5t222 -183.5l4 2v313q-214 186 -520 186q-159 0 -300 -53t-246.5 -148t-167 -237t-61.5 -311z" />
<glyph unicode="H" horiz-adv-x="1517" d="M190 0v1434h252v-594h633v594h252v-1434h-252v612h-633v-612h-252z" />
<glyph unicode="I" horiz-adv-x="630" d="M190 0v1434h252v-1434h-252z" />
<glyph unicode="J" horiz-adv-x="755" d="M82 -8v233q37 -12 94 -12q150 0 150 162v1059h252v-1088q0 -185 -93 -277t-247 -92q-82 0 -156 15z" />
<glyph unicode="K" horiz-adv-x="1339" d="M188 0v1434h252v-680l504 680h313l-540 -705l547 -729h-324l-500 702v-702h-252z" />
<glyph unicode="L" horiz-adv-x="1050" d="M190 0v1434h252v-1207h549v-227h-801z" />
<glyph unicode="M" horiz-adv-x="1914" d="M111 0l204 1434h324l313 -1012l314 1012h323l213 -1434h-256l-153 1051l-336 -1051h-213l-334 1057l-148 -1057h-251z" />
<glyph unicode="N" horiz-adv-x="1521" d="M190 0v1434h279l612 -1012v1012h250v-1434h-276l-615 1010v-1010h-250z" />
<glyph unicode="O" horiz-adv-x="1660" d="M106 717q0 -170 57 -311.5t155 -236t230.5 -146.5t282.5 -52q121 0 230 32.5t199 97t156.5 153.5t103 208t36.5 255q0 135 -36.5 253.5t-103 207.5t-156 153.5t-199.5 97.5t-230 33q-150 0 -282.5 -52.5t-230.5 -147t-155 -236t-57 -309.5zM371 717q0 224 132.5 365 t327.5 141q95 0 179.5 -36.5t147 -101.5t98.5 -160.5t36 -207.5q0 -226 -132.5 -366t-328.5 -140q-195 0 -327.5 140.5t-132.5 365.5z" />
<glyph unicode="P" horiz-adv-x="1304" d="M190 0v1434h543q239 0 374.5 -117t135.5 -328q0 -212 -136 -333t-374 -121h-291v-535h-252zM442 760h232q156 0 231.5 50.5t75.5 172.5q0 123 -75.5 174t-231.5 51h-232v-448z" />
<glyph unicode="Q" horiz-adv-x="1654" d="M106 717q0 168 57 309.5t155 236t230.5 147t282.5 52.5q120 0 230 -33t199.5 -97.5t156 -153.5t103 -207.5t36.5 -253.5q0 -172 -57 -312.5t-160 -240.5l156 -176l-178 -144l-162 195q-155 -68 -324 -68q-150 0 -282.5 52t-230.5 146.5t-155 236t-57 311.5zM371 717 q0 -225 132.5 -365.5t327.5 -140.5q77 0 154 25l-225 249l172 144l235 -271q125 141 125 359q0 112 -36 207.5t-98.5 160.5t-147 101.5t-179.5 36.5q-195 0 -327.5 -141t-132.5 -365z" />
<glyph unicode="R" horiz-adv-x="1351" d="M190 0v1434h537q228 0 363 -113.5t135 -319.5q0 -87 -24 -157t-64.5 -116.5t-98 -79t-120.5 -48.5t-136 -22l494 -578h-324l-512 631v-631h-250zM440 793h242q50 0 87 3.5t78 15.5t67 33.5t43.5 60t17.5 91.5q0 63 -21 105.5t-63 64.5t-91.5 30.5t-119.5 8.5h-240v-413z " />
<glyph unicode="S" horiz-adv-x="1171" d="M80 266l201 162q118 -220 323 -223q96 1 156.5 51t60.5 125q0 42 -15 75.5t-37.5 55t-61.5 40.5t-72.5 30.5t-84.5 26.5q-16 5 -24 7q-41 12 -76.5 25t-77 34t-75 44.5t-66 57.5t-54 73.5t-35 91.5t-13.5 111q0 114 57 206t166.5 147t253.5 56q180 -1 294 -70.5 t190 -199.5l-195 -152q-41 91 -114.5 143t-174.5 52q-89 0 -151 -48.5t-62 -123.5q0 -39 17.5 -70.5t35.5 -50t64.5 -38.5t68.5 -27t83 -24q16 -5 24 -7q67 -19 120 -41t107 -59.5t89.5 -84t58 -115.5t22.5 -153q0 -186 -132.5 -304t-354.5 -118q-337 0 -516 295z" />
<glyph unicode="T" horiz-adv-x="1114" d="M41 1206v228h1032v-228h-389v-1206h-254v1206h-389z" />
<glyph unicode="U" horiz-adv-x="1423" d="M156 594v840h252v-824q0 -198 78 -299.5t229 -101.5q149 0 226 101.5t77 299.5v824h254v-840q0 -159 -42 -280t-118 -195t-176 -111t-221 -37q-122 0 -222.5 37t-176.5 111t-118 195t-42 280z" />
<glyph unicode="V" horiz-adv-x="1366" d="M49 1434h283l354 -1166l361 1166h272l-469 -1434h-328z" />
<glyph unicode="W" horiz-adv-x="1943" d="M61 1434h273l233 -1143l267 1143h278l266 -1143l238 1143h270l-342 -1434h-325l-250 1001l-246 -1001h-320z" />
<glyph unicode="X" horiz-adv-x="1372" d="M51 0l486 737l-459 697h303l295 -473l295 473h303l-451 -682l502 -752h-311l-328 524l-338 -524h-297z" />
<glyph unicode="Y" horiz-adv-x="1255" d="M18 1434h291l322 -619l323 619h285l-483 -873v-561h-252v561z" />
<glyph unicode="Z" horiz-adv-x="1204" d="M109 0v209l682 997h-674v228h979v-211l-682 -996h684v-227h-989z" />
<glyph unicode="[" horiz-adv-x="745" d="M201 -332v1983h475v-195h-244v-1593h244v-195h-475z" />
<glyph unicode="\" horiz-adv-x="1224" d="M309 1475h266l629 -1516h-266z" />
<glyph unicode="]" horiz-adv-x="745" d="M72 -137h243v1593h-243v195h473v-1983h-473v195z" />
<glyph unicode="^" horiz-adv-x="1148" d="M72 354l362 1080h281l366 -1080h-266l-235 803l-236 -803h-272z" />
<glyph unicode="_" horiz-adv-x="1222" d="M-4 -133h1229v-221h-1229v221z" />
<glyph unicode="`" horiz-adv-x="647" d="M88 1526h262l189 -326h-228z" />
<glyph unicode="a" horiz-adv-x="1161" d="M131 868q162 238 442 238q205 0 313.5 -107.5t108.5 -312.5v-686h-229l-2 139q-34 -73 -110.5 -114t-186.5 -41q-147 0 -236.5 89t-89.5 214q0 80 26.5 140t77 99.5t112 64t143.5 40.5q135 27 173 42q79 30 79 87q0 56 -50 90.5t-131 34.5q-91 0 -164.5 -48.5 t-119.5 -136.5zM389 309q0 -54 38.5 -86.5t96.5 -32.5q104 0 166 65.5t62 158.5v110q-75 -45 -199 -71q-78 -15 -121 -47.5t-43 -96.5z" />
<glyph unicode="b" horiz-adv-x="1312" d="M180 0v1516h252v-558q118 148 322 148q136 0 238 -76t154 -203t52 -286q0 -158 -54.5 -287t-159.5 -206t-241 -77q-219 0 -335 179l-5 -150h-223zM424 535q0 -154 76 -254.5t192 -100.5q120 0 190 102t70 253q0 156 -71 256t-191 100q-118 0 -192 -97.5t-74 -258.5z" />
<glyph unicode="c" horiz-adv-x="1046" d="M102 543q0 133 45.5 242.5t121 178t168.5 105.5t192 37q88 0 150.5 -15t125.5 -49v-264h-6q-95 92 -235 92q-81 0 -151.5 -36.5t-116.5 -112.5t-46 -178q0 -146 93.5 -239t222.5 -93q76 0 128 20.5t105 61.5l6 -4v-256q-103 -62 -264 -62q-83 0 -162 24t-147 72 t-119.5 115.5t-81 160.5t-29.5 200z" />
<glyph unicode="d" horiz-adv-x="1312" d="M113 541q0 158 54 285.5t158.5 203.5t241.5 76q101 0 181.5 -40t130.5 -112v562h251v-1516h-221l-4 152q-43 -79 -126.5 -130t-203.5 -51q-139 0 -245.5 77t-161.5 206t-55 287zM360 541q0 -149 70 -251t191 -102q114 0 191 100.5t77 252.5q0 160 -74 256t-194 96 q-119 0 -190 -99.5t-71 -252.5z" />
<glyph unicode="e" horiz-adv-x="1191" d="M100 549q0 125 42 231t112 176.5t161.5 110t190.5 39.5q219 0 351 -142t135 -378q0 -7 -1 -50t-1 -69h-738q7 -128 86 -204.5t197 -76.5q102 0 165.5 43.5t112.5 122.5l166 -157q-155 -224 -436 -224q-112 0 -209 36.5t-172 106t-118.5 181.5t-43.5 254zM356 655h492 q-7 97 -70 166.5t-172 69.5q-102 0 -169.5 -68.5t-80.5 -167.5z" />
<glyph unicode="f" horiz-adv-x="729" d="M90 860v219h125v78q0 377 424 377h35v-223h-33q-89 0 -131.5 -41t-42.5 -129v-62h207v-219h-203v-860h-254v860h-127z" />
<glyph unicode="g" horiz-adv-x="1294" d="M115 -115l172 156h8q49 -94 131 -156.5t184 -62.5q138 0 216.5 91t78.5 253v88q-42 -70 -123.5 -114t-191.5 -44q-69 0 -135.5 19t-127 60.5t-105.5 100.5t-72 144t-27 186q0 119 38.5 216t102.5 158t144 93.5t167 32.5q216 0 320 -168v141h229v-921q0 -269 -138 -412 t-376 -143q-308 0 -495 282zM367 596q0 -123 73.5 -207t182.5 -84q113 0 183.5 81.5t70.5 211.5t-70.5 211.5t-183.5 81.5q-112 0 -184 -83.5t-72 -211.5z" />
<glyph unicode="h" d="M182 0v1516h252v-560q49 72 124.5 110t166.5 38q77 0 136 -20.5t107 -68t73.5 -134t25.5 -209.5v-672h-252v606q0 137 -36 206t-124 69q-102 0 -161.5 -92.5t-59.5 -233.5v-555h-252z" />
<glyph unicode="i" horiz-adv-x="612" d="M141 1358q0 70 47 115t119 45t120 -45t48 -115q0 -69 -48 -114.5t-120 -45.5t-119 45.5t-47 114.5zM180 0v1079h252v-1079h-252z" />
<glyph unicode="j" horiz-adv-x="630" d="M-2 -182v-228q49 -10 119 -10q148 0 242 97.5t94 283.5v1118h-252v-1102q0 -98 -34 -132.5t-99 -34.5q-38 0 -70 8zM160 1358q0 70 47 115t119 45t120 -45t48 -115q0 -69 -48 -114.5t-120 -45.5t-119 45.5t-47 114.5z" />
<glyph unicode="k" horiz-adv-x="1239" d="M180 0v1516h254l-2 -951l416 514h315l-450 -524l454 -555h-319l-416 537v-537h-252z" />
<glyph unicode="l" horiz-adv-x="612" d="M180 0v1518h254v-1518h-254z" />
<glyph unicode="m" horiz-adv-x="1808" d="M178 0v1079h223l5 -151q101 178 313 178q91 0 162 -48t100 -120q62 84 138.5 126t180.5 42q72 0 131 -20.5t106.5 -64t74 -118.5t26.5 -176v-727h-252v641q0 107 -36.5 172.5t-116.5 65.5q-97 0 -149 -75t-52 -214v-590h-252v643q0 236 -147 236q-90 0 -146.5 -72.5 t-56.5 -202.5v-604h-252z" />
<glyph unicode="n" d="M178 0v1079h228l2 -149q45 82 123 128t178 46q356 0 356 -432v-672h-252v602q0 137 -40 208t-132 71q-100 0 -155.5 -88.5t-55.5 -221.5v-571h-252z" />
<glyph unicode="o" horiz-adv-x="1286" d="M104 539q0 134 44 243.5t119 180t172 108t206 37.5q108 0 204.5 -37.5t171.5 -107.5t119 -180t44 -244t-44 -243.5t-119 -179.5t-171.5 -107.5t-204.5 -37.5q-109 0 -206 37.5t-172 107.5t-119 179.5t-44 243.5zM354 539q0 -155 81 -248.5t210 -93.5q128 0 208.5 93.5 t80.5 248.5q0 154 -81 250t-208 96q-128 0 -209.5 -96t-81.5 -250z" />
<glyph unicode="p" horiz-adv-x="1312" d="M180 -389v1468h221l5 -151q112 180 335 180q140 0 245 -76.5t158.5 -204.5t53.5 -288q0 -158 -53 -286t-155.5 -204t-237.5 -76q-198 0 -320 148v-510h-252zM422 541q0 -162 74.5 -259.5t193.5 -97.5t189.5 100.5t70.5 256.5q0 151 -69.5 252.5t-190.5 101.5 q-115 0 -191.5 -100t-76.5 -254z" />
<glyph unicode="q" horiz-adv-x="1312" d="M113 539q0 159 54 287.5t159 205t243 76.5q228 0 336 -193l2 164h223v-1468h-251v510q-114 -148 -308 -148q-136 0 -241.5 76t-161 204t-55.5 286zM360 547q0 -156 71 -257.5t190 -101.5t193.5 98.5t74.5 258.5q0 154 -76.5 255t-191.5 101q-122 0 -191.5 -101.5 t-69.5 -252.5z" />
<glyph unicode="r" horiz-adv-x="804" d="M180 0v1079h226l2 -190q41 100 119 154.5t178 54.5q27 0 59 -4v-258q-46 4 -70 4q-117 0 -189.5 -87.5t-72.5 -238.5v-514h-252z" />
<glyph unicode="s" horiz-adv-x="997" d="M96 203l180 151q40 -71 109 -120.5t147 -49.5q58 0 100 28t42 79q0 23 -5.5 41t-20.5 32t-26 23t-38.5 19t-39.5 14t-46 14q-42 12 -68 20.5t-68 25.5t-69.5 33.5t-60 43.5t-51 57.5t-31.5 73.5t-13 92q0 100 54.5 175.5t142.5 113t194 37.5q137 0 229.5 -53.5 t157.5 -155.5l-176 -139q-32 63 -89.5 104t-123.5 41q-61 0 -103 -29.5t-42 -78.5q0 -25 11.5 -45t25.5 -32t43.5 -24.5t45.5 -17t52 -14.5q56 -14 94.5 -27t92 -41.5t86.5 -64t57 -94.5t24 -134q0 -145 -107.5 -237.5t-279.5 -92.5q-140 0 -244 56.5t-186 175.5z" />
<glyph unicode="t" horiz-adv-x="784" d="M61 860v219h181v342h254v-342h249v-219h-249v-860h-254v860h-181z" />
<glyph unicode="u" d="M170 408v671h254v-600q0 -137 40 -207.5t132 -70.5q99 0 154 88.5t55 220.5v569h252v-1079h-228v150q-47 -81 -124 -127t-177 -46q-358 0 -358 431z" />
<glyph unicode="v" horiz-adv-x="1089" d="M41 1079h272l234 -803l237 803h265l-365 -1079h-283z" />
<glyph unicode="w" horiz-adv-x="1667" d="M72 1079h260l170 -764l198 764h283l193 -776l170 776h247l-282 -1079h-267l-213 760l-213 -760h-264z" />
<glyph unicode="x" horiz-adv-x="1136" d="M53 0l371 561l-338 518h281l200 -319l199 319h274l-335 -512l372 -567h-286l-230 367l-229 -367h-279z" />
<glyph unicode="y" horiz-adv-x="1120" d="M47 1079h270l263 -657l258 657h268l-637 -1468h-254l238 539z" />
<glyph unicode="z" horiz-adv-x="1032" d="M121 0v221l497 639h-489v219h764v-219l-494 -641h500v-219h-778z" />
<glyph unicode="{" horiz-adv-x="847" d="M90 549v250q94 0 145.5 39t51.5 131v329q0 197 94 275t295 78h69v-195h-75q-90 0 -132 -54.5t-42 -146.5v-321q0 -64 -14.5 -111.5t-35 -74t-52 -43t-57 -22t-58.5 -7.5q34 -1 59.5 -5.5t58 -20.5t53 -42t34.5 -74t12 -114l-4 -357q-3 -92 41.5 -147t136.5 -55h75v-195 h-69q-201 0 -295 78.5t-94 275.5v363q0 91 -51 128.5t-146 37.5z" />
<glyph unicode="|" horiz-adv-x="677" d="M217 -330v1981h252v-1981h-252z" />
<glyph unicode="}" horiz-adv-x="847" d="M104 -139h76q92 0 136.5 55t41.5 147l-4 357q-2 66 12 114t34.5 74t53 42t58 20.5t59.5 5.5q-33 2 -58.5 7.5t-57 22t-52 43t-35 74t-14.5 111.5v321q0 92 -42 146.5t-132 54.5h-76v195h70q201 0 295 -78t94 -275v-329q0 -92 51.5 -131t145.5 -39v-250q-95 0 -146 -37.5 t-51 -128.5v-363q0 -197 -94 -275.5t-295 -78.5h-70v195z" />
<glyph unicode="~" horiz-adv-x="1163" d="M51 467q2 156 83 264.5t222 108.5q65 0 121 -18t93 -43.5t69 -51t65 -43.5t66 -18q106 0 109 135h223q-3 -159 -79 -264t-208 -105q-64 0 -119 17.5t-93 42.5t-71 50t-67.5 42.5t-67.5 17.5q-118 0 -125 -135h-221z" />
<glyph unicode="&#xa1;" horiz-adv-x="643" d="M156 938q0 -75 48 -122.5t122 -47.5t121 47.5t47 122.5q0 74 -47 121t-121 47t-122 -47.5t-48 -120.5zM201 -358h252l-15 976h-225z" />
<glyph unicode="&#xa2;" horiz-adv-x="1017" d="M102 543q0 120 37 221t99.5 169.5t142 111t168.5 55.5v174h141v-170q121 -8 215 -68v-260l-6 -2q-83 92 -209 100v-667q67 3 114 24t95 64l6 -6v-250q-96 -56 -215 -66v-166h-141v173q-92 15 -172 59.5t-142 114t-97.5 170t-35.5 219.5zM350 543q0 -109 55.5 -192.5 t143.5 -121.5v623q-88 -34 -143.5 -114.5t-55.5 -194.5z" />
<glyph unicode="&#xa3;" horiz-adv-x="1224" d="M193 643v164h163q-4 18 -15 56t-16.5 60t-10.5 61.5t-5 82.5q0 170 114 281.5t316 111.5q96 0 161 -21.5t130 -62.5v-250l-6 -2q-120 127 -254 127q-112 0 -170.5 -63.5t-58.5 -169.5q0 -34 7 -67t18.5 -74.5t17.5 -71.5h329v-164h-313q0 -112 -34.5 -227t-102.5 -195 h661v-219h-929v211q180 172 180 432h-182z" />
<glyph unicode="&#xa4;" horiz-adv-x="1462" d="M106 221l185 185q-94 137 -94 305q0 166 94 303l-185 184l150 150l184 -187q139 92 301 92q170 0 308 -96l186 191l145 -144l-190 -188q94 -140 94 -305q0 -162 -92 -301l186 -189l-147 -151l-187 190q-137 -94 -303 -94q-162 0 -301 92l-184 -186zM440 711 q0 -126 87.5 -213.5t213.5 -87.5t212.5 87.5t86.5 213.5q0 125 -86.5 212t-212.5 87t-213.5 -87t-87.5 -212z" />
<glyph unicode="&#xa5;" horiz-adv-x="1314" d="M45 1434h289l325 -621l328 621h279l-408 -738h248v-143h-324v-127h324v-143h-324v-283h-252v283h-307v143h307v127h-307v143h232z" />
<glyph unicode="&#xa6;" horiz-adv-x="677" d="M217 -330v809h252v-809h-252zM217 834v817h252v-817h-252z" />
<glyph unicode="&#xa7;" horiz-adv-x="1122" d="M82 -98l209 108q34 -88 111.5 -143t170.5 -55t155.5 48.5t62.5 116.5q0 21 -4.5 39t-11 32.5t-20 28t-24 23t-31 20t-33.5 16.5t-39 14.5t-39.5 12.5t-43.5 12.5t-43 12.5q-62 20 -105.5 36.5t-100.5 48.5t-92.5 67.5t-61 90.5t-25.5 120q0 86 50 154t134 104 q-172 101 -172 299q0 147 131 250t326 104q181 -1 290.5 -69.5t178.5 -206.5l-211 -103q-76 187 -258 187q-87 0 -148 -46.5t-61 -113.5q0 -21 5.5 -40t13 -34t24.5 -29t29.5 -24t39 -21t42 -17t50 -16.5t51 -15t56.5 -14.5q72 -19 133 -47t115.5 -68.5t85.5 -99t31 -127.5 q0 -92 -46 -164t-120 -119q73 -47 110 -113.5t37 -178.5q0 -158 -135 -263.5t-330 -105.5q-337 0 -487 289zM375 559q0 -30 14 -56t32.5 -43t52 -34t56.5 -25.5t63.5 -22.5t57.5 -20q62 24 102 70.5t40 103.5q0 30 -13.5 55.5t-29.5 41.5t-49 32.5t-53 24t-60 21t-53 18.5 q-70 -12 -115 -57t-45 -109z" />
<glyph unicode="&#xa8;" horiz-adv-x="870" d="M74 1382q0 63 41 102.5t104 39.5t103 -39.5t40 -102.5t-40 -102t-103 -39t-104 39t-41 102zM520 1382q0 63 40.5 102.5t103.5 39.5t103 -39.5t40 -102.5t-40 -102t-103 -39t-103.5 39t-40.5 102z" />
<glyph unicode="&#xa9;" horiz-adv-x="1648" d="M104 715q0 -150 58 -287t155.5 -235.5t232 -157t281.5 -58.5t281.5 58.5t232.5 157t156 235.5t58 287t-58 287t-156 236t-232.5 157.5t-281.5 58.5q-196 0 -363.5 -99t-265.5 -269.5t-98 -370.5zM268 715q0 156 75 288t204 208.5t282 76.5q154 -2 284 -80t204.5 -209.5 t71.5 -283.5q0 -155 -74.5 -286.5t-203.5 -208.5t-282 -77t-282 77t-204 208.5t-75 286.5zM446 719q0 97 35 176.5t92.5 128.5t127 75.5t141.5 26.5q111 0 205 -49v-194l-7 -2q-74 65 -178 65q-92 0 -157.5 -57.5t-65.5 -169.5q0 -111 65.5 -171.5t159.5 -60.5q59 0 98 13.5 t78 42.5l7 -4v-185q-89 -45 -199 -45q-75 0 -146 27t-128.5 77t-92.5 129.5t-35 176.5z" />
<glyph unicode="&#xab;" horiz-adv-x="1345" d="M106 528v205l482 334v-236l-301 -198l301 -201v-233zM739 528v205l484 334v-236l-303 -198l303 -201v-233z" />
<glyph unicode="&#xac;" horiz-adv-x="1163" d="M98 623v223h965v-635h-217v412h-748z" />
<glyph unicode="&#xad;" horiz-adv-x="813" d="M98 520v223h615v-223h-615z" />
<glyph unicode="&#xae;" horiz-adv-x="1648" d="M104 715q0 -150 58 -287t155.5 -235.5t232 -157t281.5 -58.5t281.5 58.5t232.5 157t156 235.5t58 287t-58 287t-156 236t-232.5 157.5t-281.5 58.5q-196 0 -363.5 -99t-265.5 -269.5t-98 -370.5zM268 715q0 156 75 288t204 208.5t282 76.5q154 -2 284 -80t204.5 -209.5 t71.5 -283.5q0 -155 -74.5 -286.5t-203.5 -208.5t-282 -77t-282 77t-204 208.5t-75 286.5zM569 342v784h301q120 0 192.5 -66t72.5 -181q0 -106 -55 -163.5t-144 -74.5l201 -299h-199l-203 332v-332h-166zM735 778h94q66 0 102 19.5t36 79.5q0 59 -34 77.5t-104 18.5h-94 v-195z" />
<glyph unicode="&#xaf;" horiz-adv-x="1087" d="M217 1253v201h680v-201h-680z" />
<glyph unicode="&#xb0;" horiz-adv-x="813" d="M98 1155q0 124 92 214.5t218 90.5q124 0 214.5 -90t90.5 -215q0 -127 -90 -219t-215 -92q-126 0 -218 92t-92 219zM281 1155q0 -54 36.5 -90.5t90.5 -36.5q51 0 86.5 36.5t35.5 90.5q0 51 -35.5 87t-86.5 36q-54 0 -90.5 -36t-36.5 -87z" />
<glyph unicode="&#xb1;" horiz-adv-x="1163" d="M98 70v223h965v-223h-965zM98 829v224h367v370h231v-370h367v-224h-367v-368h-231v368h-367z" />
<glyph unicode="&#xb4;" horiz-adv-x="688" d="M131 1200l188 326h265l-226 -326h-227z" />
<glyph unicode="&#xb6;" horiz-adv-x="1325" d="M59 1040q0 186 131 290t361 104h606v-1817h-211v1606h-186v-1606h-209v1001q-221 0 -356.5 109.5t-135.5 312.5z" />
<glyph unicode="&#xb7;" horiz-adv-x="536" d="M111 711q0 68 43.5 110.5t111.5 42.5t111 -42t43 -111q0 -66 -43.5 -110t-110.5 -44t-111 44t-44 110z" />
<glyph unicode="&#xb8;" horiz-adv-x="524" d="M92 -283q49 -34 109 -34q92 0 92 61q0 68 -98 68h-76l67 194h156l-35 -88q63 -6 110.5 -53.5t47.5 -118.5q0 -85 -61 -144t-171 -59q-81 0 -141 29v145z" />
<glyph unicode="&#xbb;" horiz-adv-x="1331" d="M125 199v233l303 201l-303 198v236l483 -334v-205zM741 199v233l303 201l-303 198v236l484 -334v-205z" />
<glyph unicode="&#xbc;" horiz-adv-x="1540" d="M57 1032v217l246 185h150v-807h-189v575l-203 -170h-4zM123 0l1106 1434h219l-1106 -1434h-219zM858 141v187l318 479h206v-504h97v-162h-97v-141h-188v141h-336zM1028 303h178l2 277z" />
<glyph unicode="&#xbd;" horiz-adv-x="1595" d="M55 1032v217l244 185h152v-807h-189v575l-203 -170h-4zM98 0l1104 1434h219l-1106 -1434h-217zM995 2v168q31 32 75.5 76t67.5 67t53 54.5t45 50t30 40t20.5 38t5.5 32.5q1 55 -28 84t-84 29q-47 0 -93 -28t-79 -70l-4 4l-3 207q55 36 106 53.5t120 17.5q112 0 190 -64.5 t78 -182.5q0 -35 -7.5 -68t-26.5 -66.5t-34.5 -58.5t-47.5 -59.5t-50 -53t-57.5 -56t-54.5 -52.5h292v-162h-514z" />
<glyph unicode="&#xbe;" horiz-adv-x="1538" d="M98 664v188l4 2q89 -80 193 -80q56 0 93.5 24.5t37.5 65.5q0 36 -23.5 58t-54 29t-69.5 7h-54v152h54q131 0 131 82q0 44 -36.5 68t-88.5 24q-108 0 -181 -76l-6 4v179q105 57 224 57q120 0 198 -57t78 -166q0 -54 -23.5 -95.5t-49.5 -60t-56 -29.5q60 -16 102.5 -65.5 t42.5 -136.5q0 -110 -82.5 -170t-216.5 -60q-126 0 -217 56zM154 0l1106 1434h219l-1106 -1434h-219zM823 141v187l318 479h209v-504h96v-162h-96v-141h-191v141h-336zM993 303h178l3 277z" />
<glyph unicode="&#xbf;" horiz-adv-x="903" d="M51 -18q0 67 16.5 121.5t43 91t59 67t65 58t59.5 56t44 67.5t18 87v82h230v-96q-2 -66 -18.5 -120.5t-42 -90.5t-56 -66t-60.5 -55.5t-54.5 -51t-40 -59t-15.5 -73.5q0 -69 45.5 -112.5t114.5 -45.5q150 -6 227 185h6l203 -131q-141 -281 -440 -281q-187 3 -295.5 108 t-108.5 259zM291 938q0 75 47 122.5t119 47.5q75 0 123.5 -47.5t48.5 -122.5q0 -73 -48.5 -120.5t-123.5 -47.5q-72 0 -119 47.5t-47 120.5z" />
<glyph unicode="&#xc0;" horiz-adv-x="1427" d="M57 0l500 1434h315l498 -1434h-274l-113 344h-547l-112 -344h-267zM348 1827h266l195 -277h-219zM508 561h403l-200 617z" />
<glyph unicode="&#xc1;" horiz-adv-x="1427" d="M57 0l500 1434h315l498 -1434h-274l-113 344h-547l-112 -344h-267zM508 561h403l-200 617zM592 1550l194 277h287l-242 -277h-239z" />
<glyph unicode="&#xc2;" horiz-adv-x="1427" d="M57 0l500 1434h315l498 -1434h-274l-113 344h-547l-112 -344h-267zM309 1556l252 277h275l262 -277h-246l-147 142l-148 -142h-248zM508 561h403l-200 617z" />
<glyph unicode="&#xc3;" horiz-adv-x="1427" d="M57 0l500 1434h315l498 -1434h-274l-113 344h-547l-112 -344h-267zM377 1610v194q91 82 182 82q49 0 93.5 -14.5t73 -32.5t66 -32.5t74.5 -14.5q89 0 170 88v-194q-87 -82 -182 -82q-56 0 -106 24t-97.5 48t-95.5 24q-104 0 -178 -90zM508 561h403l-200 617z" />
<glyph unicode="&#xc4;" horiz-adv-x="1427" d="M57 0l500 1434h315l498 -1434h-274l-113 344h-547l-112 -344h-267zM356 1690q0 63 40.5 103t103.5 40t103 -40t40 -103t-40 -102.5t-103 -39.5t-103.5 39.5t-40.5 102.5zM508 561h403l-200 617zM801 1690q0 63 40 103t103 40t103 -40t40 -103t-40 -102.5t-103 -39.5 t-103 39.5t-40 102.5z" />
<glyph unicode="&#xc5;" horiz-adv-x="1427" d="M57 0l500 1434h315l498 -1434h-274l-113 344h-547l-112 -344h-267zM485 1714q0 88 62 144.5t160 56.5q100 0 160.5 -56t60.5 -145t-60.5 -145t-160.5 -56q-98 0 -160 56.5t-62 144.5zM508 561h403l-200 617zM629 1714q0 -33 22.5 -56.5t55.5 -23.5q36 0 57.5 23.5 t21.5 56.5t-21.5 56.5t-57.5 23.5q-33 0 -55.5 -23.5t-22.5 -56.5z" />
<glyph unicode="&#xc6;" horiz-adv-x="2021" d="M2 0l918 1434h927v-226h-622l51 -368h563v-228h-530l55 -387h539v-225h-754l-47 346h-598l-217 -346h-285zM635 555h438l-80 571z" />
<glyph unicode="&#xc7;" horiz-adv-x="1409" d="M109 717q0 167 60.5 308.5t163 236t239.5 147.5t290 53q251 0 414 -110v-295l-4 -2q-93 88 -187.5 127t-218.5 39q-133 0 -245.5 -62.5t-181 -179t-68.5 -262.5q0 -147 68.5 -263.5t181 -178.5t245.5 -62q127 0 216.5 36t187.5 130l4 -2v-299q-158 -101 -381 -107 l-23 -53q63 -6 110.5 -53.5t47.5 -118.5q0 -85 -60.5 -144t-170.5 -59q-79 0 -142 29v145q53 -34 111 -34q92 0 92 61q0 68 -100 68h-76l59 168q-133 19 -248 79t-200.5 153t-134.5 223t-49 282z" />
<glyph unicode="&#xc8;" horiz-adv-x="1196" d="M190 0v1434h873v-228h-621v-366h592v-228h-592v-385h621v-227h-873zM295 1827h266l195 -277h-219z" />
<glyph unicode="&#xc9;" horiz-adv-x="1196" d="M190 0v1434h873v-228h-621v-366h592v-228h-592v-385h621v-227h-873zM473 1550l195 277h288l-243 -277h-240z" />
<glyph unicode="&#xca;" horiz-adv-x="1196" d="M190 0v1434h873v-228h-621v-366h592v-228h-592v-385h621v-227h-873zM227 1548l250 277h277l262 -277h-246l-147 142l-150 -142h-246z" />
<glyph unicode="&#xcb;" horiz-adv-x="1196" d="M190 0v1434h873v-228h-621v-366h592v-228h-592v-385h621v-227h-873zM266 1690q0 63 41 103t105 40q63 0 102 -40t39 -103t-39 -102.5t-102 -39.5q-65 0 -105.5 39.5t-40.5 102.5zM711 1690q0 63 40.5 103t104.5 40q63 0 102 -40t39 -103t-39 -102.5t-102 -39.5 q-64 0 -104.5 39.5t-40.5 102.5z" />
<glyph unicode="&#xcc;" horiz-adv-x="630" d="M-31 1827h267l194 -277h-219zM190 0v1434h252v-1434h-252z" />
<glyph unicode="&#xcd;" horiz-adv-x="630" d="M172 1550l195 277h286l-241 -277h-240zM190 0v1434h252v-1434h-252z" />
<glyph unicode="&#xce;" horiz-adv-x="630" d="M-90 1548l250 277h274l264 -277h-245l-148 142l-149 -142h-246zM190 0v1434h254v-1434h-254z" />
<glyph unicode="&#xcf;" horiz-adv-x="630" d="M-55 1690q0 63 40 103t103 40q64 0 103.5 -40t39.5 -103t-39.5 -102.5t-103.5 -39.5q-63 0 -103 39.5t-40 102.5zM190 0v1434h252v-1434h-252zM389 1690q0 63 41 103t105 40q63 0 102 -40t39 -103t-39 -102.5t-102 -39.5q-65 0 -105.5 39.5t-40.5 102.5z" />
<glyph unicode="&#xd0;" horiz-adv-x="1564" d="M88 633v223h145v578h496q153 0 285.5 -48t232 -137t156.5 -226t57 -306t-57 -306.5t-156.5 -226.5t-232 -136.5t-285.5 -47.5h-496v633h-145zM485 223h211q142 0 253 53.5t178 166.5t67 272q0 240 -135 366.5t-363 126.5h-211v-352h291v-223h-291v-410z" />
<glyph unicode="&#xd1;" horiz-adv-x="1521" d="M190 0v1434h279l612 -1012v1012h250v-1434h-276l-615 1010v-1010h-250zM455 1610v194q91 82 184 82q48 0 92.5 -14.5t72.5 -32.5t65.5 -32.5t74.5 -14.5q89 0 170 88v-194q-87 -82 -182 -82q-56 0 -106 24t-97.5 48t-95.5 24q-101 0 -178 -90z" />
<glyph unicode="&#xd2;" horiz-adv-x="1660" d="M106 717q0 -170 57 -311.5t155 -236t230.5 -146.5t282.5 -52q121 0 230 32.5t199 97t156.5 153.5t103 208t36.5 255q0 135 -36.5 253.5t-103 207.5t-156 153.5t-199.5 97.5t-230 33q-150 0 -282.5 -52.5t-230.5 -147t-155 -236t-57 -309.5zM371 717q0 224 132.5 365 t327.5 141q95 0 179.5 -36.5t147 -101.5t98.5 -160.5t36 -207.5q0 -226 -132.5 -366t-328.5 -140q-195 0 -327.5 140.5t-132.5 365.5zM512 1827h266l195 -277h-219z" />
<glyph unicode="&#xd3;" horiz-adv-x="1660" d="M106 717q0 -170 57 -311.5t155 -236t230.5 -146.5t282.5 -52q121 0 230 32.5t199 97t156.5 153.5t103 208t36.5 255q0 135 -36.5 253.5t-103 207.5t-156 153.5t-199.5 97.5t-230 33q-150 0 -282.5 -52.5t-230.5 -147t-155 -236t-57 -309.5zM371 717q0 224 132.5 365 t327.5 141q95 0 179.5 -36.5t147 -101.5t98.5 -160.5t36 -207.5q0 -226 -132.5 -366t-328.5 -140q-195 0 -327.5 140.5t-132.5 365.5zM664 1550l194 277h289l-242 -277h-241z" />
<glyph unicode="&#xd4;" horiz-adv-x="1660" d="M106 717q0 -170 57 -311.5t155 -236t230.5 -146.5t282.5 -52q121 0 230 32.5t199 97t156.5 153.5t103 208t36.5 255q0 135 -36.5 253.5t-103 207.5t-156 153.5t-199.5 97.5t-230 33q-150 0 -282.5 -52.5t-230.5 -147t-155 -236t-57 -309.5zM371 717q0 224 132.5 365 t327.5 141q95 0 179.5 -36.5t147 -101.5t98.5 -160.5t36 -207.5q0 -226 -132.5 -366t-328.5 -140q-195 0 -327.5 140.5t-132.5 365.5zM422 1556l250 275h274l264 -275h-247l-148 140l-147 -140h-246z" />
<glyph unicode="&#xd5;" horiz-adv-x="1650" d="M106 717q0 -170 57 -311.5t155 -236t230.5 -146.5t282.5 -52q121 0 230 32.5t199 97t156.5 153.5t103 208t36.5 255q0 135 -36.5 253.5t-103 207.5t-156 153.5t-199.5 97.5t-230 33q-150 0 -282.5 -52.5t-230.5 -147t-155 -236t-57 -309.5zM371 717q0 224 132.5 365 t327.5 141q95 0 179.5 -36.5t147 -101.5t98.5 -160.5t36 -207.5q0 -226 -132.5 -366t-328.5 -140q-195 0 -327.5 140.5t-132.5 365.5zM496 1610v194q91 82 182 82q61 0 114 -23.5t100 -47t93 -23.5q89 0 170 88v-194q-92 -82 -184 -82q-44 0 -85.5 15t-69 33t-66.5 33 t-78 15q-102 0 -176 -90z" />
<glyph unicode="&#xd6;" horiz-adv-x="1660" d="M106 717q0 -170 57 -311.5t155 -236t230.5 -146.5t282.5 -52q121 0 230 32.5t199 97t156.5 153.5t103 208t36.5 255q0 135 -36.5 253.5t-103 207.5t-156 153.5t-199.5 97.5t-230 33q-150 0 -282.5 -52.5t-230.5 -147t-155 -236t-57 -309.5zM371 717q0 224 132.5 365 t327.5 141q95 0 179.5 -36.5t147 -101.5t98.5 -160.5t36 -207.5q0 -226 -132.5 -366t-328.5 -140q-195 0 -327.5 140.5t-132.5 365.5zM471 1690q0 63 40.5 103t104.5 40q63 0 102.5 -40t39.5 -103t-39.5 -102.5t-102.5 -39.5q-64 0 -104.5 39.5t-40.5 102.5zM915 1690 q0 63 41 103t105 40q63 0 102 -40t39 -103t-39 -102.5t-102 -39.5q-65 0 -105.5 39.5t-40.5 102.5z" />
<glyph unicode="&#xd7;" horiz-adv-x="1163" d="M162 475l264 262l-260 260l158 158l260 -260l262 262l162 -162l-263 -262l261 -260l-158 -158l-260 260l-260 -262z" />
<glyph unicode="&#xd8;" horiz-adv-x="1710" d="M90 -74l254 293q-168 202 -168 498q0 168 57 309.5t155 236t230.5 147t282.5 52.5q235 0 416 -121l139 160h256l-252 -289q166 -203 166 -495q0 -136 -36.5 -255t-103 -208t-156.5 -153.5t-199 -97t-230 -32.5q-235 0 -414 119l-141 -164h-256zM438 717q0 -172 80 -297 l633 729q-113 74 -252 74q-195 0 -328 -141t-133 -365zM653 281q112 -70 246 -70q198 0 330.5 140t132.5 366q0 166 -78 293z" />
<glyph unicode="&#xd9;" horiz-adv-x="1423" d="M156 594v840h252v-824q0 -198 78 -299.5t229 -101.5q149 0 226 101.5t77 299.5v824h254v-840q0 -159 -42 -280t-118 -195t-176 -111t-221 -37q-122 0 -222.5 37t-176.5 111t-118 195t-42 280zM391 1827h266l195 -277h-219z" />
<glyph unicode="&#xda;" horiz-adv-x="1423" d="M156 594v840h252v-824q0 -198 78 -299.5t229 -101.5q149 0 226 101.5t77 299.5v824h254v-840q0 -159 -42 -280t-118 -195t-176 -111t-221 -37q-122 0 -222.5 37t-176.5 111t-118 195t-42 280zM541 1550l194 277h289l-244 -277h-239z" />
<glyph unicode="&#xdb;" horiz-adv-x="1423" d="M156 594v840h252v-824q0 -198 78 -299.5t229 -101.5q149 0 226 101.5t77 299.5v824h254v-840q0 -159 -42 -280t-118 -195t-176 -111t-221 -37q-122 0 -222.5 37t-176.5 111t-118 195t-42 280zM303 1548l252 277h274l265 -277h-248l-148 142l-147 -142h-248z" />
<glyph unicode="&#xdc;" horiz-adv-x="1423" d="M156 594v840h252v-824q0 -198 78 -299.5t229 -101.5q149 0 226 101.5t77 299.5v824h254v-840q0 -159 -42 -280t-118 -195t-176 -111t-221 -37q-122 0 -222.5 37t-176.5 111t-118 195t-42 280zM352 1690q0 63 41 103t105 40q63 0 103 -40t40 -103t-40 -102.5t-103 -39.5 q-65 0 -105.5 39.5t-40.5 102.5zM797 1690q0 63 40.5 103t104.5 40q63 0 103 -40t40 -103t-40 -102.5t-103 -39.5q-64 0 -104.5 39.5t-40.5 102.5z" />
<glyph unicode="&#xdd;" horiz-adv-x="1255" d="M18 1434h291l322 -619l323 619h285l-483 -873v-561h-252v561zM461 1550l194 277h289l-244 -277h-239z" />
<glyph unicode="&#xde;" horiz-adv-x="1320" d="M190 0v1434h269v-232h276q238 0 374 -116.5t136 -327.5q0 -212 -136.5 -332.5t-373.5 -120.5h-278v-305h-267zM457 526h227q156 0 232.5 52t76.5 174q0 123 -76 175t-233 52h-227v-453z" />
<glyph unicode="&#xdf;" horiz-adv-x="1261" d="M180 0h246l-2 999q0 47 12 88t36.5 75.5t68.5 54.5t102 20q100 0 157.5 -56.5t57.5 -142.5q0 -90 -58.5 -153.5t-156.5 -63.5v-198q114 0 179 -54t65 -143q0 -99 -59.5 -156t-170.5 -57q-27 0 -69 10v-219q65 -14 117 -14q202 0 322 103t120 308q0 57 -14 107t-37 87 t-55 67t-65.5 49.5t-70.5 33.5q88 44 143.5 129.5t55.5 198.5q0 122 -65.5 212.5t-167 133.5t-222.5 43q-219 0 -344 -119.5t-125 -312.5v-1030z" />
<glyph unicode="&#xe0;" horiz-adv-x="1148" d="M131 868q162 238 442 238q205 0 313.5 -107.5t108.5 -312.5v-686h-229l-2 139q-34 -73 -110.5 -114t-186.5 -41q-147 0 -236.5 89t-89.5 214q0 80 26.5 140t77 99.5t112 64t143.5 40.5q135 27 173 42q79 30 79 87q0 56 -50 90.5t-131 34.5q-91 0 -164.5 -48.5 t-119.5 -136.5zM270 1526h265l186 -326h-225zM389 309q0 -54 38.5 -86.5t96.5 -32.5q104 0 166 65.5t62 158.5v110q-75 -45 -199 -71q-78 -15 -121 -47.5t-43 -96.5z" />
<glyph unicode="&#xe1;" horiz-adv-x="1148" d="M131 868q162 238 442 238q205 0 313.5 -107.5t108.5 -312.5v-686h-229l-2 139q-34 -73 -110.5 -114t-186.5 -41q-147 0 -236.5 89t-89.5 214q0 80 26.5 140t77 99.5t112 64t143.5 40.5q135 27 173 42q79 30 79 87q0 56 -50 90.5t-131 34.5q-91 0 -164.5 -48.5 t-119.5 -136.5zM389 309q0 -54 38.5 -86.5t96.5 -32.5q104 0 166 65.5t62 158.5v110q-75 -45 -199 -71q-78 -15 -121 -47.5t-43 -96.5zM428 1200l188 326h265l-226 -326h-227z" />
<glyph unicode="&#xe2;" horiz-adv-x="1148" d="M131 868q162 238 442 238q205 0 313.5 -107.5t108.5 -312.5v-686h-229l-2 139q-34 -73 -110.5 -114t-186.5 -41q-147 0 -236.5 89t-89.5 214q0 80 26.5 140t77 99.5t112 64t143.5 40.5q135 27 173 42q79 30 79 87q0 56 -50 90.5t-131 34.5q-91 0 -164.5 -48.5 t-119.5 -136.5zM203 1206l237 326h254l248 -326h-229l-140 170l-139 -170h-231zM389 309q0 -54 38.5 -86.5t96.5 -32.5q104 0 166 65.5t62 158.5v110q-75 -45 -199 -71q-78 -15 -121 -47.5t-43 -96.5z" />
<glyph unicode="&#xe3;" horiz-adv-x="1148" d="M131 868q162 238 442 238q205 0 313.5 -107.5t108.5 -312.5v-686h-229l-2 139q-34 -73 -110.5 -114t-186.5 -41q-147 0 -236.5 89t-89.5 214q0 80 26.5 140t77 99.5t112 64t143.5 40.5q135 27 173 42q79 30 79 87q0 56 -50 90.5t-131 34.5q-91 0 -164.5 -48.5 t-119.5 -136.5zM231 1235v192q94 84 185 84q48 0 92.5 -15t72.5 -33t65.5 -33t74.5 -15q86 0 170 88v-192q-89 -84 -182 -84q-56 0 -106 24t-97.5 48t-95.5 24q-101 0 -179 -88zM389 309q0 -54 38.5 -86.5t96.5 -32.5q104 0 166 65.5t62 158.5v110q-75 -45 -199 -71 q-78 -15 -121 -47.5t-43 -96.5z" />
<glyph unicode="&#xe4;" horiz-adv-x="1148" d="M131 868q162 238 442 238q205 0 313.5 -107.5t108.5 -312.5v-686h-229l-2 139q-34 -73 -110.5 -114t-186.5 -41q-147 0 -236.5 89t-89.5 214q0 80 26.5 140t77 99.5t112 64t143.5 40.5q135 27 173 42q79 30 79 87q0 56 -50 90.5t-131 34.5q-91 0 -164.5 -48.5 t-119.5 -136.5zM199 1382q0 63 40.5 102.5t104.5 39.5q63 0 103 -39.5t40 -102.5t-40 -102t-103 -39q-65 0 -105 39t-40 102zM389 309q0 -54 38.5 -86.5t96.5 -32.5q104 0 166 65.5t62 158.5v110q-75 -45 -199 -71q-78 -15 -121 -47.5t-43 -96.5zM643 1382q0 63 40.5 102.5 t104.5 39.5q63 0 103.5 -39.5t40.5 -102.5t-40.5 -102t-103.5 -39q-65 0 -105 39t-40 102z" />
<glyph unicode="&#xe5;" horiz-adv-x="1148" d="M131 868q162 238 442 238q205 0 313.5 -107.5t108.5 -312.5v-686h-229l-2 139q-34 -73 -110.5 -114t-186.5 -41q-147 0 -236.5 89t-89.5 214q0 80 26.5 140t77 99.5t112 64t143.5 40.5q135 27 173 42q79 30 79 87q0 56 -50 90.5t-131 34.5q-91 0 -164.5 -48.5 t-119.5 -136.5zM350 1380q0 98 70.5 158.5t175.5 60.5t173.5 -60.5t68.5 -158.5t-68.5 -158.5t-173.5 -60.5t-175.5 60.5t-70.5 158.5zM389 309q0 -54 38.5 -86.5t96.5 -32.5q104 0 166 65.5t62 158.5v110q-75 -45 -199 -71q-78 -15 -121 -47.5t-43 -96.5zM508 1380 q0 -37 24.5 -61.5t63.5 -24.5t61.5 24t22.5 62t-22.5 62t-61.5 24t-63.5 -24.5t-24.5 -61.5z" />
<glyph unicode="&#xe6;" horiz-adv-x="1812" d="M119 887q167 219 438 219q105 0 192 -43.5t138 -122.5q137 166 340 166q220 0 352.5 -147t132.5 -394q0 -71 -2 -96h-731q9 -144 88 -216.5t209 -72.5q95 0 155.5 40t110.5 112h6l146 -162q-155 -199 -430 -199q-130 0 -240 57.5t-164 153.5q-56 -102 -146 -150t-200 -48 q-176 0 -277.5 96t-101.5 237q0 168 129 259.5t359 91.5h135v26q0 89 -59 145t-146 56q-85 0 -156 -42.5t-118 -117.5h-7zM377 322q0 -61 45.5 -100.5t120.5 -39.5q100 0 157.5 70t57.5 168v55h-129q-252 0 -252 -153zM983 657h481q-2 93 -63 163.5t-164 70.5 q-105 0 -174 -67.5t-80 -166.5z" />
<glyph unicode="&#xe7;" horiz-adv-x="1046" d="M102 543q0 133 45.5 242.5t121 178t168.5 105.5t192 37q88 0 150.5 -15t125.5 -49v-264h-6q-95 92 -235 92q-81 0 -151.5 -36.5t-116.5 -112.5t-46 -178q0 -146 93.5 -239t222.5 -93q76 0 128 20.5t105 61.5l6 -4v-256q-103 -62 -264 -62l-23 -53q63 -6 110.5 -53.5 t47.5 -118.5q0 -85 -60.5 -144t-170.5 -59q-79 0 -142 29v145q53 -34 111 -34q90 0 90 61q0 68 -98 68h-76l64 180q-171 47 -281.5 191t-110.5 360z" />
<glyph unicode="&#xe8;" horiz-adv-x="1191" d="M100 549q0 125 42 231t112 176.5t161.5 110t190.5 39.5q219 0 351 -142t135 -378q0 -7 -1 -50t-1 -69h-738q7 -128 86 -204.5t197 -76.5q102 0 165.5 43.5t112.5 122.5l166 -157q-155 -224 -436 -224q-112 0 -209 36.5t-172 106t-118.5 181.5t-43.5 254zM285 1526h264 l186 -326h-225zM356 655h492q-7 97 -70 166.5t-172 69.5q-102 0 -169.5 -68.5t-80.5 -167.5z" />
<glyph unicode="&#xe9;" horiz-adv-x="1191" d="M100 549q0 125 42 231t112 176.5t161.5 110t190.5 39.5q219 0 351 -142t135 -378q0 -7 -1 -50t-1 -69h-738q7 -128 86 -204.5t197 -76.5q102 0 165.5 43.5t112.5 122.5l166 -157q-155 -224 -436 -224q-112 0 -209 36.5t-172 106t-118.5 181.5t-43.5 254zM356 655h492 q-7 97 -70 166.5t-172 69.5q-102 0 -169.5 -68.5t-80.5 -167.5zM469 1200l186 326h265l-226 -326h-225z" />
<glyph unicode="&#xea;" horiz-adv-x="1191" d="M100 549q0 125 42 231t112 176.5t161.5 110t190.5 39.5q219 0 351 -142t135 -378q0 -7 -1 -50t-1 -69h-738q7 -128 86 -204.5t197 -76.5q102 0 165.5 43.5t112.5 122.5l166 -157q-155 -224 -436 -224q-112 0 -209 36.5t-172 106t-118.5 181.5t-43.5 254zM244 1206 l237 326h254l248 -326h-229l-140 170l-139 -170h-231zM356 655h492q-7 97 -70 166.5t-172 69.5q-102 0 -169.5 -68.5t-80.5 -167.5z" />
<glyph unicode="&#xeb;" horiz-adv-x="1191" d="M100 549q0 125 42 231t112 176.5t161.5 110t190.5 39.5q219 0 351 -142t135 -378q0 -7 -1 -50t-1 -69h-738q7 -128 86 -204.5t197 -76.5q102 0 165.5 43.5t112.5 122.5l166 -157q-155 -224 -436 -224q-112 0 -209 36.5t-172 106t-118.5 181.5t-43.5 254zM246 1382 q0 63 40.5 102.5t104.5 39.5q63 0 102 -39.5t39 -102.5t-39 -102t-102 -39q-65 0 -105 39t-40 102zM356 655h492q-7 97 -70 166.5t-172 69.5q-102 0 -169.5 -68.5t-80.5 -167.5zM690 1382q0 63 40.5 102.5t105.5 39.5q63 0 102 -39.5t39 -102.5t-39 -102t-102 -39 q-65 0 -105.5 39t-40.5 102z" />
<glyph unicode="&#xec;" horiz-adv-x="612" d="M-2 1526h262l189 -326h-228zM180 0v1079h254v-1079h-254z" />
<glyph unicode="&#xed;" horiz-adv-x="612" d="M180 0v1079h254v-1079h-254zM195 1200l188 326h262l-223 -326h-227z" />
<glyph unicode="&#xee;" horiz-adv-x="612" d="M-57 1206l235 326h254l250 -326h-231l-140 170l-137 -170h-231zM180 0v1079h256v-1079h-256z" />
<glyph unicode="&#xef;" horiz-adv-x="612" d="M-25 1382q0 62 39.5 101t100.5 39q60 0 98.5 -39.5t38.5 -100.5t-38.5 -100t-98.5 -39q-62 0 -101 39t-39 100zM180 0v1079h254v-1079h-254zM360 1382q0 62 39 101t101 39q60 0 98.5 -39.5t38.5 -100.5t-38.5 -100t-98.5 -39q-62 0 -101 39t-39 100z" />
<glyph unicode="&#xf0;" horiz-adv-x="1277" d="M115 537q0 150 58 273t164 194t238 71q118 0 204.5 -54t121.5 -149q-49 213 -219 392l-453 -107v143l328 78q-98 77 -195 138l3 6h290q65 -44 123 -90l375 88v-146l-254 -59q256 -286 256 -699q0 -294 -140 -469.5t-386 -175.5q-145 0 -261.5 69.5t-184.5 199.5t-68 297z M342 541q0 -147 82 -243.5t201 -96.5q128 0 204 100.5t76 245.5q1 138 -81.5 226.5t-202.5 88.5q-116 0 -197.5 -90.5t-81.5 -230.5z" />
<glyph unicode="&#xf1;" d="M178 0v1079h228l2 -149q45 82 123 128t178 46q356 0 356 -432v-672h-252v602q0 137 -40 208t-132 71q-100 0 -155.5 -88.5t-55.5 -221.5v-571h-252zM285 1235v192q94 84 182 84q49 0 93.5 -15t72.5 -33t66 -33t75 -15q86 0 170 88v-192q-26 -23 -45.5 -37.5t-58 -30.5 t-78.5 -16q-56 0 -106.5 24t-98 48t-94.5 24q-103 0 -178 -88z" />
<glyph unicode="&#xf2;" horiz-adv-x="1286" d="M104 539q0 134 44 243.5t119 180t172 108t206 37.5q108 0 204.5 -37.5t171.5 -107.5t119 -180t44 -244t-44 -243.5t-119 -179.5t-171.5 -107.5t-204.5 -37.5q-109 0 -206 37.5t-172 107.5t-119 179.5t-44 243.5zM342 1526h262l189 -326h-228zM354 539q0 -155 81 -248.5 t210 -93.5q128 0 208.5 93.5t80.5 248.5q0 154 -81 250t-208 96q-128 0 -209.5 -96t-81.5 -250z" />
<glyph unicode="&#xf3;" horiz-adv-x="1286" d="M104 539q0 134 44 243.5t119 180t172 108t206 37.5q108 0 204.5 -37.5t171.5 -107.5t119 -180t44 -244t-44 -243.5t-119 -179.5t-171.5 -107.5t-204.5 -37.5q-109 0 -206 37.5t-172 107.5t-119 179.5t-44 243.5zM354 539q0 -155 81 -248.5t210 -93.5q128 0 208.5 93.5 t80.5 248.5q0 154 -81 250t-208 96q-128 0 -209.5 -96t-81.5 -250zM512 1200l186 326h265l-226 -326h-225z" />
<glyph unicode="&#xf4;" horiz-adv-x="1286" d="M104 539q0 134 44 243.5t119 180t172 108t206 37.5q108 0 204.5 -37.5t171.5 -107.5t119 -180t44 -244t-44 -243.5t-119 -179.5t-171.5 -107.5t-204.5 -37.5q-109 0 -206 37.5t-172 107.5t-119 179.5t-44 243.5zM291 1206l235 326h254l250 -326h-231l-140 172l-137 -172 h-231zM354 539q0 -155 81 -248.5t210 -93.5q128 0 208.5 93.5t80.5 248.5q0 154 -81 250t-208 96q-128 0 -209.5 -96t-81.5 -250z" />
<glyph unicode="&#xf5;" horiz-adv-x="1286" d="M104 539q0 134 44 243.5t119 180t172 108t206 37.5q108 0 204.5 -37.5t171.5 -107.5t119 -180t44 -244t-44 -243.5t-119 -179.5t-171.5 -107.5t-204.5 -37.5q-109 0 -206 37.5t-172 107.5t-119 179.5t-44 243.5zM311 1235v192q94 84 185 84q49 0 93.5 -15t72.5 -33 t66 -33t75 -15q86 0 170 88v-192q-94 -84 -185 -84q-56 0 -106 24t-97.5 48t-95.5 24q-100 0 -178 -88zM354 539q0 -155 81 -248.5t210 -93.5q128 0 208.5 93.5t80.5 248.5q0 154 -81 250t-208 96q-128 0 -209.5 -96t-81.5 -250z" />
<glyph unicode="&#xf6;" horiz-adv-x="1286" d="M104 539q0 134 44 243.5t119 180t172 108t206 37.5q108 0 204.5 -37.5t171.5 -107.5t119 -180t44 -244t-44 -243.5t-119 -179.5t-171.5 -107.5t-204.5 -37.5q-109 0 -206 37.5t-172 107.5t-119 179.5t-44 243.5zM289 1382q0 63 40.5 102.5t104.5 39.5q63 0 103.5 -39.5 t40.5 -102.5t-40.5 -102t-103.5 -39q-65 0 -105 39t-40 102zM354 539q0 -155 81 -248.5t210 -93.5q128 0 208.5 93.5t80.5 248.5q0 154 -81 250t-208 96q-128 0 -209.5 -96t-81.5 -250zM733 1382q0 63 41.5 102.5t104.5 39.5t103 -39.5t40 -102.5t-40 -102t-103 -39 q-64 0 -105 39.5t-41 101.5z" />
<glyph unicode="&#xf7;" horiz-adv-x="1163" d="M98 592v223h965v-223h-965zM428 287q0 67 44.5 110t109.5 43t109 -43t44 -110q0 -63 -44 -104.5t-109 -41.5t-109.5 41.5t-44.5 104.5zM428 1114q0 66 45 110t109 44t108.5 -43.5t44.5 -110.5q0 -62 -44.5 -104.5t-108.5 -42.5t-109 42.5t-45 104.5z" />
<glyph unicode="&#xf8;" horiz-adv-x="1286" d="M43 -90l193 240q-132 155 -132 389q0 135 44 244.5t119 179.5t172 107.5t206 37.5q164 0 297 -82l129 160h178l-200 -250q135 -154 135 -397q0 -135 -43.5 -244.5t-118.5 -179t-171.5 -107t-205.5 -37.5q-170 0 -303 86l-119 -147h-180zM354 539q0 -111 41 -191l400 494 q-64 43 -150 43q-128 0 -209.5 -96t-81.5 -250zM489 242q67 -45 156 -45q128 0 208.5 93.5t80.5 248.5q0 115 -47 198z" />
<glyph unicode="&#xf9;" d="M170 408v671h252v-600q0 -137 40 -207.5t132 -70.5q99 0 155 88.5t56 220.5v569h252v-1079h-228l-2 150q-46 -80 -123.5 -126.5t-177.5 -46.5q-356 0 -356 431zM313 1526h265l188 -326h-227z" />
<glyph unicode="&#xfa;" d="M170 408v671h254v-600q0 -137 40 -207.5t132 -70.5q99 0 154 88.5t55 220.5v569h252v-1079h-228v150q-47 -81 -124 -127t-177 -46q-358 0 -358 431zM492 1200l188 326h262l-223 -326h-227z" />
<glyph unicode="&#xfb;" d="M170 408v671h254v-600q0 -137 40 -207.5t132 -70.5q99 0 154 88.5t55 220.5v569h252v-1079h-228v150q-47 -81 -124 -127t-177 -46q-358 0 -358 431zM250 1206l237 326h252l250 -326h-229l-139 170l-140 -170h-231z" />
<glyph unicode="&#xfc;" d="M170 408v671h252v-600q0 -137 40 -207.5t132 -70.5q99 0 155 88.5t56 220.5v569h252v-1079h-228l-2 150q-46 -80 -123.5 -126.5t-177.5 -46.5q-356 0 -356 431zM252 1382q0 63 40.5 102.5t104.5 39.5q63 0 102.5 -39.5t39.5 -102.5t-39.5 -102t-102.5 -39q-65 0 -105 39 t-40 102zM696 1382q0 63 40.5 102.5t105.5 39.5q63 0 102 -39.5t39 -102.5t-39 -102t-102 -39q-65 0 -105.5 39t-40.5 102z" />
<glyph unicode="&#xfd;" horiz-adv-x="1120" d="M47 1079h270l263 -657l258 657h268l-637 -1468h-254l238 539zM471 1200l186 326h265l-226 -326h-225z" />
<glyph unicode="&#xfe;" horiz-adv-x="1312" d="M182 -420v1854h254v-473q46 68 125.5 107.5t181.5 39.5q140 0 245 -76.5t158.5 -204.5t53.5 -288q0 -158 -53 -286t-155.5 -204t-237.5 -76q-198 0 -318 156v-549h-254zM424 541q0 -162 74.5 -259.5t193.5 -97.5q120 0 191 100.5t71 256.5q0 151 -70 252.5t-190 101.5 q-116 0 -193 -100t-77 -254z" />
<glyph unicode="&#xff;" horiz-adv-x="1120" d="M47 1079h270l263 -657l258 657h268l-637 -1468h-254l238 539zM215 1382q0 63 40.5 102.5t104.5 39.5q63 0 102.5 -39.5t39.5 -102.5t-39.5 -102t-102.5 -39q-65 0 -105 39t-40 102zM659 1382q0 63 40.5 102.5t105.5 39.5q63 0 102 -39.5t39 -102.5t-39 -102t-102 -39 q-65 0 -105.5 39t-40.5 102z" />
<glyph unicode="&#x100;" horiz-adv-x="1427" d="M57 0l500 1434h315l498 -1434h-274l-113 344h-547l-112 -344h-267zM379 1589v201h680v-201h-680zM508 561h403l-200 617z" />
<glyph unicode="&#x101;" horiz-adv-x="1148" d="M131 868q162 238 442 238q205 0 313.5 -107.5t108.5 -312.5v-686h-229l-2 139q-34 -73 -110.5 -114t-186.5 -41q-147 0 -236.5 89t-89.5 214q0 80 26.5 140t77 99.5t112 64t143.5 40.5q135 27 173 42q79 30 79 87q0 56 -50 90.5t-131 34.5q-91 0 -164.5 -48.5 t-119.5 -136.5zM221 1253v201h680v-201h-680zM389 309q0 -54 38.5 -86.5t96.5 -32.5q104 0 166 65.5t62 158.5v110q-75 -45 -199 -71q-78 -15 -121 -47.5t-43 -96.5z" />
<glyph unicode="&#x102;" horiz-adv-x="1427" d="M57 0l500 1434h315l498 -1434h-274l-113 344h-547l-112 -344h-267zM412 1827h174q3 -52 40.5 -90.5t92.5 -38.5t92.5 38.5t40.5 90.5h174q-3 -119 -89 -202t-218 -83t-218.5 83.5t-88.5 201.5zM508 561h403l-200 617z" />
<glyph unicode="&#x103;" horiz-adv-x="1148" d="M131 868q162 238 442 238q205 0 313.5 -107.5t108.5 -312.5v-686h-229l-2 139q-34 -73 -110.5 -114t-186.5 -41q-147 0 -236.5 89t-89.5 214q0 80 26.5 140t77 99.5t112 64t143.5 40.5q135 27 173 42q79 30 79 87q0 56 -50 90.5t-131 34.5q-91 0 -164.5 -48.5 t-119.5 -136.5zM252 1518h190q7 -152 125 -152q61 0 92.5 40.5t36.5 111.5h189q-2 -141 -91 -235.5t-227 -94.5q-136 0 -224 94.5t-91 235.5zM389 309q0 -54 38.5 -86.5t96.5 -32.5q104 0 166 65.5t62 158.5v110q-75 -45 -199 -71q-78 -15 -121 -47.5t-43 -96.5z" />
<glyph unicode="&#x104;" horiz-adv-x="1427" d="M57 0l500 1434h315l498 -1434h-22q-51 -29 -87 -68t-36 -79q0 -76 98 -76q31 0 49 6v-162q-39 -10 -88 -10q-98 0 -167.5 48.5t-69.5 139.5q0 119 133 201h-84l-113 344h-547l-112 -344h-267zM508 561h403l-200 617z" />
<glyph unicode="&#x105;" horiz-adv-x="1148" d="M131 868q162 238 442 238q205 0 313.5 -107.5t108.5 -312.5v-686h-100l14 8l-28 -8h-115l-2 139q-34 -73 -110.5 -114t-186.5 -41q-147 0 -236.5 89t-89.5 214q0 80 26.5 140t77 99.5t112 64t143.5 40.5q135 27 173 42q79 30 79 87q0 56 -50 90.5t-131 34.5 q-91 0 -164.5 -48.5t-119.5 -136.5zM389 309q0 -54 38.5 -86.5t96.5 -32.5q104 0 166 65.5t62 158.5v110q-75 -45 -199 -71q-78 -15 -121 -47.5t-43 -96.5zM762 -172q0 97 119 172h14q-130 -73 -133 -172zM762 -174q1 -64 50.5 -100.5t119.5 -36.5q-72 0 -121 35.5t-49 99.5 v2zM934 -311q38 0 67 10v-2q-33 -8 -67 -8z" />
<glyph unicode="&#x106;" horiz-adv-x="1409" d="M109 717q0 167 60.5 308.5t163 236t239.5 147.5t290 53q251 0 414 -110v-295l-4 -2q-93 88 -187.5 127t-218.5 39q-133 0 -245.5 -62.5t-181 -179t-68.5 -262.5q0 -147 68.5 -263.5t181 -178.5t245.5 -62q127 0 216.5 36t187.5 130l4 -2v-299q-164 -107 -412 -107 q-154 0 -291 52.5t-239.5 147.5t-162.5 236.5t-60 309.5zM655 1550l195 277h289l-242 -277h-242z" />
<glyph unicode="&#x107;" horiz-adv-x="1046" d="M102 543q0 133 45.5 242.5t121 178t168.5 105.5t192 37q88 0 150.5 -15t125.5 -49v-264h-6q-95 92 -235 92q-81 0 -151.5 -36.5t-116.5 -112.5t-46 -178q0 -146 93.5 -239t222.5 -93q76 0 128 20.5t105 61.5l6 -4v-256q-103 -62 -264 -62q-83 0 -162 24t-147 72 t-119.5 115.5t-81 160.5t-29.5 200zM477 1200l187 326h264l-226 -326h-225z" />
<glyph unicode="&#x108;" horiz-adv-x="1409" d="M109 717q0 167 60.5 308.5t163 236t239.5 147.5t290 53q251 0 414 -110v-295l-4 -2q-93 88 -187.5 127t-218.5 39q-133 0 -245.5 -62.5t-181 -179t-68.5 -262.5q0 -147 68.5 -263.5t181 -178.5t245.5 -62q127 0 216.5 36t187.5 130l4 -2v-299q-164 -107 -412 -107 q-154 0 -291 52.5t-239.5 147.5t-162.5 236.5t-60 309.5zM430 1556l250 277h276l263 -277h-246l-148 142l-147 -142h-248z" />
<glyph unicode="&#x109;" horiz-adv-x="1046" d="M102 543q0 133 45.5 242.5t121 178t168.5 105.5t192 37q88 0 150.5 -15t125.5 -49v-264h-6q-95 92 -235 92q-81 0 -151.5 -36.5t-116.5 -112.5t-46 -178q0 -146 93.5 -239t222.5 -93q76 0 128 20.5t105 61.5l6 -4v-256q-103 -62 -264 -62q-83 0 -162 24t-147 72 t-119.5 115.5t-81 160.5t-29.5 200zM244 1206l237 326h254l248 -326h-229l-140 170l-139 -170h-231z" />
<glyph unicode="&#x10a;" horiz-adv-x="1409" d="M109 717q0 167 60.5 308.5t163 236t239.5 147.5t290 53q251 0 414 -110v-295l-4 -2q-93 88 -187.5 127t-218.5 39q-133 0 -245.5 -62.5t-181 -179t-68.5 -262.5q0 -147 68.5 -263.5t181 -178.5t245.5 -62q127 0 216.5 36t187.5 130l4 -2v-299q-164 -107 -412 -107 q-154 0 -291 52.5t-239.5 147.5t-162.5 236.5t-60 309.5zM664 1696q0 73 50.5 120.5t125.5 47.5q76 0 127 -47.5t51 -120.5q0 -72 -51 -119t-127 -47q-75 0 -125.5 47t-50.5 119z" />
<glyph unicode="&#x10b;" horiz-adv-x="1046" d="M102 543q0 133 45.5 242.5t121 178t168.5 105.5t192 37q88 0 150.5 -15t125.5 -49v-264h-6q-95 92 -235 92q-81 0 -151.5 -36.5t-116.5 -112.5t-46 -178q0 -146 93.5 -239t222.5 -93q76 0 128 20.5t105 61.5l6 -4v-256q-103 -62 -264 -62q-83 0 -162 24t-147 72 t-119.5 115.5t-81 160.5t-29.5 200zM424 1372q0 73 50.5 120.5t125.5 47.5q76 0 127 -47.5t51 -120.5q0 -72 -51 -119t-127 -47q-75 0 -125.5 47t-50.5 119z" />
<glyph unicode="&#x10c;" horiz-adv-x="1409" d="M109 717q0 167 60.5 308.5t163 236t239.5 147.5t290 53q251 0 414 -110v-295l-4 -2q-93 88 -187.5 127t-218.5 39q-133 0 -245.5 -62.5t-181 -179t-68.5 -262.5q0 -147 68.5 -263.5t181 -178.5t245.5 -62q127 0 216.5 36t187.5 130l4 -2v-299q-164 -107 -412 -107 q-154 0 -291 52.5t-239.5 147.5t-162.5 236.5t-60 309.5zM422 1827h246l149 -139l148 139h245l-264 -277h-274z" />
<glyph unicode="&#x10d;" horiz-adv-x="1046" d="M102 543q0 133 45.5 242.5t121 178t168.5 105.5t192 37q88 0 150.5 -15t125.5 -49v-264h-6q-95 92 -235 92q-81 0 -151.5 -36.5t-116.5 -112.5t-46 -178q0 -146 93.5 -239t222.5 -93q76 0 128 20.5t105 61.5l6 -4v-256q-103 -62 -264 -62q-83 0 -162 24t-147 72 t-119.5 115.5t-81 160.5t-29.5 200zM231 1526h232l137 -172l139 172h232l-250 -326h-254z" />
<glyph unicode="&#x10e;" horiz-adv-x="1521" d="M190 0v1434h494q153 0 286 -48t232.5 -137t157 -226t57.5 -306t-57.5 -306.5t-157 -226.5t-232 -136.5t-284.5 -47.5h-496zM229 1827h248l148 -139l147 139h246l-262 -277h-277zM442 227h211q106 0 196 30.5t158.5 90t107 153.5t38.5 214q0 239 -135.5 365t-364.5 126 h-211v-979z" />
<glyph unicode="&#x10f;" horiz-adv-x="1400" d="M113 541q0 158 54 285.5t158.5 203.5t241.5 76q101 0 181.5 -40t130.5 -112v562h251v-1516h-221l-4 152q-43 -79 -126.5 -130t-203.5 -51q-139 0 -245.5 77t-161.5 206t-55 287zM360 541q0 -149 70 -251t191 -102q114 0 191 100.5t77 252.5q0 160 -74 256t-194 96 q-119 0 -190 -99.5t-71 -252.5zM1221 1069l18 444h209l-51 -444h-176z" />
<glyph unicode="&#x110;" horiz-adv-x="1564" d="M88 633v223h145v578h496q153 0 285.5 -48t232 -137t156.5 -226t57 -306t-57 -306.5t-156.5 -226.5t-232 -136.5t-285.5 -47.5h-496v633h-145zM485 223h211q142 0 253 53.5t178 166.5t67 272q0 240 -135 366.5t-363 126.5h-211v-352h291v-223h-291v-410z" />
<glyph unicode="&#x111;" horiz-adv-x="1316" d="M113 541q0 158 54 285.5t158.5 203.5t241.5 76q101 0 181.5 -40t130.5 -112v240h-291v145h291v177h251v-177h203v-145h-203v-1194h-221l-4 152q-43 -79 -126.5 -130t-203.5 -51q-139 0 -245.5 77t-161.5 206t-55 287zM360 541q0 -149 70 -251t191 -102q114 0 191 100.5 t77 252.5q0 160 -74 256t-194 96q-119 0 -190 -99.5t-71 -252.5z" />
<glyph unicode="&#x112;" horiz-adv-x="1196" d="M190 0v1434h873v-228h-621v-366h592v-228h-592v-385h621v-227h-873zM279 1589v201h679v-201h-679z" />
<glyph unicode="&#x113;" horiz-adv-x="1191" d="M100 549q0 125 42 231t112 176.5t161.5 110t190.5 39.5q219 0 351 -142t135 -378q0 -7 -1 -50t-1 -69h-738q7 -128 86 -204.5t197 -76.5q102 0 165.5 43.5t112.5 122.5l166 -157q-155 -224 -436 -224q-112 0 -209 36.5t-172 106t-118.5 181.5t-43.5 254zM256 1253v201 h680v-201h-680zM356 655h492q-7 97 -70 166.5t-172 69.5q-102 0 -169.5 -68.5t-80.5 -167.5z" />
<glyph unicode="&#x114;" horiz-adv-x="1196" d="M190 0v1434h873v-228h-621v-366h592v-228h-592v-385h621v-227h-873zM328 1827h176q3 -52 40.5 -90.5t92.5 -38.5t92.5 38.5t40.5 90.5h174q-3 -119 -89 -202t-218 -83t-219 83.5t-90 201.5z" />
<glyph unicode="&#x115;" horiz-adv-x="1191" d="M100 549q0 125 42 231t112 176.5t161.5 110t190.5 39.5q219 0 351 -142t135 -378q0 -7 -1 -50t-1 -69h-738q7 -128 86 -204.5t197 -76.5q102 0 165.5 43.5t112.5 122.5l166 -157q-155 -224 -436 -224q-112 0 -209 36.5t-172 106t-118.5 181.5t-43.5 254zM291 1518h188 q3 -71 34.5 -111.5t92.5 -40.5t92.5 40.5t34.5 111.5h191q-3 -142 -91.5 -236t-226.5 -94q-137 0 -225 94.5t-90 235.5zM356 655h492q-7 97 -70 166.5t-172 69.5q-102 0 -169.5 -68.5t-80.5 -167.5z" />
<glyph unicode="&#x116;" horiz-adv-x="1196" d="M190 0v1434h873v-228h-621v-366h592v-228h-592v-385h621v-227h-873zM449 1696q0 73 50.5 120.5t127.5 47.5q75 0 125.5 -47.5t50.5 -120.5q0 -72 -50.5 -119t-125.5 -47q-77 0 -127.5 47t-50.5 119z" />
<glyph unicode="&#x117;" horiz-adv-x="1191" d="M100 549q0 125 42 231t112 176.5t161.5 110t190.5 39.5q219 0 351 -142t135 -378q0 -7 -1 -50t-1 -69h-738q7 -128 86 -204.5t197 -76.5q102 0 165.5 43.5t112.5 122.5l166 -157q-155 -224 -436 -224q-112 0 -209 36.5t-172 106t-118.5 181.5t-43.5 254zM356 655h492 q-7 97 -70 166.5t-172 69.5q-102 0 -169.5 -68.5t-80.5 -167.5zM432 1372q0 73 50.5 120.5t127.5 47.5q75 0 125.5 -47.5t50.5 -120.5q0 -72 -50.5 -119t-125.5 -47q-77 0 -127.5 47t-50.5 119z" />
<glyph unicode="&#x118;" horiz-adv-x="1196" d="M190 0v1434h873v-228h-621v-366h592v-228h-592v-385h621v-227h-21q-51 -28 -86.5 -67t-35.5 -80q0 -76 96 -76q31 0 49 6v-162q-36 -10 -86 -10q-98 0 -168 48.5t-70 139.5q0 121 133 201h-684z" />
<glyph unicode="&#x119;" horiz-adv-x="1191" d="M104 549q0 123 40 228.5t108.5 176.5t159.5 111.5t192 40.5q219 0 351 -142t135 -378q0 -6 -5 -119h-733q7 -129 85.5 -205t199.5 -76q100 0 163.5 44t110.5 120h7l165 -155q-67 -95 -159 -152q-107 -78 -107 -154q0 -43 29 -66.5t72 -23.5q37 0 61 15v-170 q-40 -11 -88 -11q-93 0 -161 47.5t-68 143.5q0 92 73 153q-47 -6 -94 -6q-111 0 -207.5 38t-170.5 109t-116.5 182t-42.5 249zM360 657h488q-7 93 -70.5 162.5t-169.5 69.5q-101 0 -168 -68.5t-80 -163.5z" />
<glyph unicode="&#x11a;" horiz-adv-x="1196" d="M190 0v1434h873v-228h-621v-366h592v-228h-592v-385h621v-227h-873zM244 1827h248l147 -139l147 139h246l-262 -277h-276z" />
<glyph unicode="&#x11b;" horiz-adv-x="1191" d="M100 549q0 125 42 231t112 176.5t161.5 110t190.5 39.5q219 0 351 -142t135 -378q0 -7 -1 -50t-1 -69h-738q7 -128 86 -204.5t197 -76.5q102 0 165.5 43.5t112.5 122.5l166 -157q-155 -224 -436 -224q-112 0 -209 36.5t-172 106t-118.5 181.5t-43.5 254zM252 1526h233 l138 -172l139 172h229l-248 -326h-254zM356 655h492q-7 97 -70 166.5t-172 69.5q-102 0 -169.5 -68.5t-80.5 -167.5z" />
<glyph unicode="&#x11c;" horiz-adv-x="1603" d="M106 713q0 -136 37.5 -255t105 -207.5t159 -152t201 -95.5t229.5 -32q167 0 295.5 51t209.5 145.5t122 224t42 290.5q0 58 -6 98h-770v-221h500q-2 -154 -103.5 -251t-289.5 -97q-95 0 -180 36.5t-148.5 101t-101 158.5t-37.5 204q0 154 73 270t189.5 173.5t255.5 57.5 q157 0 286 -67.5t222 -183.5l4 2v313q-214 186 -520 186q-159 0 -300 -53t-246.5 -148t-167 -237t-61.5 -311zM444 1550l250 277h275l264 -277h-248l-147 140l-148 -140h-246z" />
<glyph unicode="&#x11d;" horiz-adv-x="1294" d="M115 -115l172 156h8q49 -94 131 -156.5t184 -62.5q138 0 216.5 91t78.5 253v88q-42 -70 -123.5 -114t-191.5 -44q-69 0 -135.5 19t-127 60.5t-105.5 100.5t-72 144t-27 186q0 119 38.5 216t102.5 158t144 93.5t167 32.5q216 0 320 -168v141h229v-921q0 -269 -138 -412 t-376 -143q-308 0 -495 282zM276 1206l238 326h254l248 -326h-230l-139 170l-139 -170h-232zM367 596q0 -123 73.5 -207t182.5 -84q113 0 183.5 81.5t70.5 211.5t-70.5 211.5t-183.5 81.5q-112 0 -184 -83.5t-72 -211.5z" />
<glyph unicode="&#x11e;" horiz-adv-x="1603" d="M106 713q0 -136 37.5 -255t105 -207.5t159 -152t201 -95.5t229.5 -32q167 0 295.5 51t209.5 145.5t122 224t42 290.5q0 58 -6 98h-770v-221h500q-2 -154 -103.5 -251t-289.5 -97q-95 0 -180 36.5t-148.5 101t-101 158.5t-37.5 204q0 154 73 270t189.5 173.5t255.5 57.5 q157 0 286 -67.5t222 -183.5l4 2v313q-214 186 -520 186q-159 0 -300 -53t-246.5 -148t-167 -237t-61.5 -311zM508 1827h176q3 -52 40 -90.5t93 -38.5q55 0 91.5 38.5t41.5 90.5h174q-3 -119 -89 -202t-218 -83t-219 83.5t-90 201.5z" />
<glyph unicode="&#x11f;" horiz-adv-x="1294" d="M115 -115l172 156h8q49 -94 131 -156.5t184 -62.5q138 0 216.5 91t78.5 253v88q-42 -70 -123.5 -114t-191.5 -44q-69 0 -135.5 19t-127 60.5t-105.5 100.5t-72 144t-27 186q0 119 38.5 216t102.5 158t144 93.5t167 32.5q216 0 320 -168v141h229v-921q0 -269 -138 -412 t-376 -143q-308 0 -495 282zM311 1518h191q7 -152 125 -152q61 0 92.5 40.5t36.5 111.5h188q-2 -141 -90.5 -235.5t-226.5 -94.5q-136 0 -224.5 94.5t-91.5 235.5zM367 596q0 -123 73.5 -207t182.5 -84q113 0 183.5 81.5t70.5 211.5t-70.5 211.5t-183.5 81.5 q-112 0 -184 -83.5t-72 -211.5z" />
<glyph unicode="&#x120;" horiz-adv-x="1603" d="M106 713q0 -136 37.5 -255t105 -207.5t159 -152t201 -95.5t229.5 -32q167 0 295.5 51t209.5 145.5t122 224t42 290.5q0 58 -6 98h-770v-221h500q-2 -154 -103.5 -251t-289.5 -97q-95 0 -180 36.5t-148.5 101t-101 158.5t-37.5 204q0 154 73 270t189.5 173.5t255.5 57.5 q157 0 286 -67.5t222 -183.5l4 2v313q-214 186 -520 186q-159 0 -300 -53t-246.5 -148t-167 -237t-61.5 -311zM674 1696q0 73 50.5 120.5t127.5 47.5q74 0 125 -47.5t51 -120.5q0 -71 -51 -118.5t-125 -47.5q-77 0 -127.5 47t-50.5 119z" />
<glyph unicode="&#x121;" horiz-adv-x="1294" d="M115 -115l172 156h8q49 -94 131 -156.5t184 -62.5q138 0 216.5 91t78.5 253v88q-42 -70 -123.5 -114t-191.5 -44q-69 0 -135.5 19t-127 60.5t-105.5 100.5t-72 144t-27 186q0 119 38.5 216t102.5 158t144 93.5t167 32.5q216 0 320 -168v141h229v-921q0 -269 -138 -412 t-376 -143q-308 0 -495 282zM367 596q0 -123 73.5 -207t182.5 -84q113 0 183.5 81.5t70.5 211.5t-70.5 211.5t-183.5 81.5q-112 0 -184 -83.5t-72 -211.5zM483 1372q0 73 50.5 120.5t125.5 47.5q76 0 127.5 -47.5t51.5 -120.5q0 -71 -51.5 -118.5t-127.5 -47.5 q-75 0 -125.5 47t-50.5 119z" />
<glyph unicode="&#x122;" horiz-adv-x="1603" d="M106 713q0 -136 37.5 -255t105 -207.5t159 -152t201 -95.5t229.5 -32q167 0 295.5 51t209.5 145.5t122 224t42 290.5q0 58 -6 98h-770v-221h500q-2 -154 -103.5 -251t-289.5 -97q-95 0 -180 36.5t-148.5 101t-101 158.5t-37.5 204q0 154 73 270t189.5 173.5t255.5 57.5 q157 0 286 -67.5t222 -183.5l4 2v313q-214 186 -520 186q-159 0 -300 -53t-246.5 -148t-167 -237t-61.5 -311zM707 -475q129 45 147 147q-10 -2 -27 -2q-50 0 -82 35t-32 84q0 48 38 86.5t97 38.5q62 0 100.5 -44.5t38.5 -111.5q0 -52 -13.5 -100t-43 -97.5t-87 -91 t-136.5 -67.5v123z" />
<glyph unicode="&#x123;" horiz-adv-x="1294" d="M115 -115l172 156h8q49 -94 131 -156.5t184 -62.5q138 0 216.5 91t78.5 253v88q-42 -70 -123.5 -114t-191.5 -44q-69 0 -135.5 19t-127 60.5t-105.5 100.5t-72 144t-27 186q0 119 38.5 216t102.5 158t144 93.5t167 32.5q216 0 320 -168v141h229v-921q0 -269 -138 -412 t-376 -143q-308 0 -495 282zM367 596q0 -123 73.5 -207t182.5 -84q113 0 183.5 81.5t70.5 211.5t-70.5 211.5t-183.5 81.5q-112 0 -184 -83.5t-72 -211.5zM541 1323q0 51 13.5 99t43 97t87 90.5t136.5 67.5v-123q-130 -45 -147 -147q10 2 26 2q50 0 82.5 -35t32.5 -84 q0 -48 -38 -86.5t-97 -38.5q-62 0 -100.5 45t-38.5 113z" />
<glyph unicode="&#x124;" horiz-adv-x="1517" d="M190 0v1434h252v-594h633v594h252v-1434h-252v612h-633v-612h-252zM350 1548l250 277h277l262 -277h-246l-148 142l-147 -142h-248z" />
<glyph unicode="&#x125;" d="M-51 1579h229l164 152l162 -152h229l-268 283h-262zM180 0v1516h252v-560q105 148 291 148q77 0 136 -20.5t107.5 -68t74.5 -134t26 -209.5v-672h-254v606q0 138 -35 206.5t-123 68.5q-102 0 -162.5 -93t-60.5 -233v-555h-252z" />
<glyph unicode="&#x126;" horiz-adv-x="1542" d="M55 997v199h146v238h254v-238h630v238h254v-238h152v-199h-152v-997h-254v582h-630v-582h-254v997h-146zM455 809h630v188h-630v-188z" />
<glyph unicode="&#x127;" horiz-adv-x="1245" d="M29 1190v145h159v181h252v-181h314v-145h-314v-234q49 72 124.5 110t166.5 38q77 0 136 -20.5t107 -68t73.5 -134t25.5 -209.5v-672h-252v606q0 138 -35 206.5t-124 68.5q-102 0 -162 -92.5t-60 -233.5v-555h-252v1190h-159z" />
<glyph unicode="&#x128;" horiz-adv-x="630" d="M-10 1610v194q91 82 184 82q61 0 114 -23.5t100 -47t93 -23.5q89 0 170 88v-194q-92 -82 -184 -82q-56 0 -106 24t-97.5 48t-95.5 24q-101 0 -178 -90zM190 0v1434h252v-1434h-252z" />
<glyph unicode="&#x129;" horiz-adv-x="612" d="M-25 1235v192q94 84 185 84q49 0 93.5 -15t72.5 -33t66 -33t75 -15q86 0 170 88v-192q-26 -23 -45.5 -37.5t-58.5 -30.5t-80 -16q-44 0 -85.5 15t-69 33t-66.5 33t-78 15q-101 0 -179 -88zM180 0v1079h254v-1079h-254z" />
<glyph unicode="&#x12a;" horiz-adv-x="630" d="M33 1589v183h567v-183h-567zM188 0v1434h252v-1434h-252z" />
<glyph unicode="&#x12b;" horiz-adv-x="612" d="M35 1255v183h545v-183h-545zM180 0v1079h254v-1079h-254z" />
<glyph unicode="&#x12c;" horiz-adv-x="630" d="M16 1827h174q3 -52 41.5 -90.5t94.5 -38.5q55 0 91.5 38.5t41.5 90.5h174q-3 -119 -89 -202t-218 -83t-219.5 83.5t-90.5 201.5zM190 0v1434h252v-1434h-252z" />
<glyph unicode="&#x12d;" horiz-adv-x="612" d="M-8 1518h190q7 -152 125 -152q61 0 92.5 40.5t36.5 111.5h189q-2 -141 -91 -235.5t-227 -94.5q-135 0 -223.5 94.5t-91.5 235.5zM180 0v1079h254v-1079h-254z" />
<glyph unicode="&#x12e;" horiz-adv-x="630" d="M121 -201q0 121 133 201h-64v1434h252v-1434h-22q-51 -29 -87 -68t-36 -79q0 -76 98 -76q31 0 49 6v-162q-39 -10 -88 -10q-97 0 -166 48.5t-69 139.5z" />
<glyph unicode="&#x12f;" horiz-adv-x="612" d="M133 -205q0 120 135 205h-88v1079h254v-1079q-53 -23 -91 -59.5t-38 -85.5q0 -39 29.5 -63.5t75.5 -24.5q26 0 47 8v-154q-36 -10 -86 -10q-98 0 -168 46.5t-70 137.5zM145 1391q0 68 46.5 110.5t117.5 42.5q70 0 116 -42.5t46 -110.5q0 -67 -46.5 -110.5t-115.5 -43.5 q-71 0 -117.5 43.5t-46.5 110.5z" />
<glyph unicode="&#x130;" horiz-adv-x="630" d="M147 1696q0 73 50.5 120.5t126.5 47.5t127 -47.5t51 -120.5q0 -72 -51 -119t-127 -47q-75 0 -126 47t-51 119zM190 0v1434h252v-1434h-252z" />
<glyph unicode="&#x131;" horiz-adv-x="612" d="M180 0v1079h254v-1079h-254z" />
<glyph unicode="&#x132;" horiz-adv-x="1124" d="M188 469h252v965h-252v-965zM379 33v241q69 -57 147 -57q75 0 119.5 46.5t44.5 135.5v1035h252v-1084q0 -185 -93 -279t-241 -94q-138 0 -229 56z" />
<glyph unicode="&#x134;" horiz-adv-x="765" d="M-2 1550l250 277h274l264 -277h-245l-148 140l-149 -140h-246zM82 -8v233q37 -12 94 -12q150 0 150 162v1059h252v-1088q0 -185 -93 -277t-247 -92q-82 0 -156 15z" />
<glyph unicode="&#x135;" horiz-adv-x="630" d="M-53 -121v-231q69 -31 170 -31q147 0 240.5 100t93.5 287v1075h-252v-1067q0 -98 -35 -131t-105 -33q-61 0 -112 31zM-35 1214l238 326h248l247 -326h-213l-151 191l-152 -191h-217z" />
<glyph unicode="&#x136;" horiz-adv-x="1339" d="M188 0v1434h252v-680l504 680h313l-540 -705l547 -729h-324l-500 702v-702h-252zM487 -475q133 45 148 147q-10 -2 -27 -2q-48 0 -80 35t-32 84t37 87t96 38q62 0 100.5 -44.5t38.5 -111.5q0 -52 -13 -100t-43 -97.5t-87.5 -91t-137.5 -67.5v123z" />
<glyph unicode="&#x137;" horiz-adv-x="1239" d="M180 0v1516h254l-2 -951l416 514h315l-450 -524l454 -555h-319l-416 537v-537h-252zM449 -475q129 45 147 147q-10 -2 -27 -2q-50 0 -81 35t-31 84t37 87t96 38q62 0 100.5 -44.5t38.5 -111.5q0 -52 -13 -100t-42.5 -97.5t-87 -91t-137.5 -67.5v123z" />
<glyph unicode="&#x139;" horiz-adv-x="1050" d="M174 1550l195 277h286l-241 -277h-240zM190 0v1434h252v-1207h549v-227h-801z" />
<glyph unicode="&#x13a;" horiz-adv-x="612" d="M178 1595l195 277h289l-242 -277h-242zM180 0v1518h254v-1518h-254z" />
<glyph unicode="&#x13b;" horiz-adv-x="1050" d="M190 0v1434h252v-1207h549v-227h-801zM442 -475q61 21 100 58.5t46 88.5q-10 -2 -27 -2q-48 0 -80 35t-32 84t37 87t96 38q63 0 101 -44t38 -112q0 -52 -13 -100t-43 -97.5t-87 -91t-136 -67.5v123z" />
<glyph unicode="&#x13c;" horiz-adv-x="612" d="M123 -475q132 45 147 147q-10 -2 -26 -2q-48 0 -80.5 35.5t-32.5 83.5q0 49 37 87t96 38q62 0 100.5 -44.5t38.5 -111.5q0 -52 -13 -100t-42.5 -97.5t-87 -91t-137.5 -67.5v123zM180 0v1518h254v-1518h-254z" />
<glyph unicode="&#x13d;" horiz-adv-x="1050" d="M190 0v1434h252v-1207h549v-227h-801zM557 987l21 445h208l-51 -445h-178z" />
<glyph unicode="&#x13e;" horiz-adv-x="700" d="M180 0v1518h254v-1518h-254zM522 1071l19 445h211l-52 -445h-178z" />
<glyph unicode="&#x13f;" horiz-adv-x="1050" d="M190 0v1434h252v-1207h549v-227h-801zM584 784q0 67 43.5 110.5t111.5 43.5q66 0 110 -43.5t44 -110.5t-44 -110t-110 -43q-68 0 -111.5 43t-43.5 110z" />
<glyph unicode="&#x140;" horiz-adv-x="868" d="M180 0v1518h254v-1518h-254zM575 754q0 69 43.5 112t112.5 43q67 0 110.5 -43.5t43.5 -111.5q0 -66 -44 -110t-110 -44q-69 0 -112.5 44t-43.5 110z" />
<glyph unicode="&#x141;" horiz-adv-x="1087" d="M72 492v223l151 71v648h252v-527l338 160v-225l-338 -160v-459h549v-223h-801v563z" />
<glyph unicode="&#x142;" horiz-adv-x="692" d="M41 651v156l186 94v617h256v-490l207 105v-156l-207 -105v-872h-256v745z" />
<glyph unicode="&#x143;" horiz-adv-x="1521" d="M190 0v1434h279l612 -1012v1012h250v-1434h-276l-615 1010v-1010h-250zM629 1550l194 277h287l-242 -277h-239z" />
<glyph unicode="&#x144;" d="M178 0v1079h228l2 -149q45 82 123 128t178 46q356 0 356 -432v-672h-252v602q0 137 -40 208t-132 71q-100 0 -155.5 -88.5t-55.5 -221.5v-571h-252zM498 1200l186 326h264l-225 -326h-225z" />
<glyph unicode="&#x145;" horiz-adv-x="1521" d="M190 0v1434h279l612 -1012v1012h250v-1434h-276l-615 1010v-1010h-250zM598 -475q132 45 147 147q-10 -2 -26 -2q-48 0 -80.5 35.5t-32.5 83.5q0 49 37 87t96 38q62 0 101 -44.5t39 -111.5q0 -52 -13 -100t-43 -97.5t-87.5 -91t-137.5 -67.5v123z" />
<glyph unicode="&#x146;" d="M178 0v1079h228l2 -149q45 82 123 128t178 46q356 0 356 -432v-672h-252v602q0 137 -40 208t-132 71q-100 0 -155.5 -88.5t-55.5 -221.5v-571h-252zM465 -475q132 45 147 147q-10 -2 -26 -2q-48 0 -80.5 35.5t-32.5 83.5q0 49 37 87t96 38q62 0 100.5 -44.5t38.5 -111.5 q0 -52 -13 -100t-42.5 -97.5t-87 -91t-137.5 -67.5v123z" />
<glyph unicode="&#x147;" horiz-adv-x="1521" d="M190 0v1434h279l612 -1012v1012h250v-1434h-276l-615 1010v-1010h-250zM362 1827h248l148 -139l147 139h248l-264 -277h-275z" />
<glyph unicode="&#x148;" d="M178 0v1079h228l2 -149q45 82 123 128t178 46q356 0 356 -432v-672h-252v602q0 137 -40 208t-132 71q-100 0 -155.5 -88.5t-55.5 -221.5v-571h-252zM260 1526h232l139 -172l139 172h229l-249 -326h-252z" />
<glyph unicode="&#x14a;" horiz-adv-x="1521" d="M190 0v1434h263l628 -1012v78h9v934h241v-1434q-1 -185 -93.5 -284t-238.5 -99q-101 0 -172 31v219q48 -31 113 -31q64 0 101 37.5t38 126.5l-647 1022v-1022h-242z" />
<glyph unicode="&#x14b;" d="M178 0v1079h228l2 -149q45 82 123 128t178 46q356 0 356 -432v-668q0 -186 -94 -286.5t-240 -100.5q-101 0 -170 31v219q51 -33 113 -33q67 0 103 39.5t36 138.5v590q0 137 -40 208t-132 71q-100 0 -155.5 -88.5t-55.5 -221.5v-571h-252z" />
<glyph unicode="&#x14c;" horiz-adv-x="1660" d="M106 717q0 -170 57 -311.5t155 -236t230.5 -146.5t282.5 -52q121 0 230 32.5t199 97t156.5 153.5t103 208t36.5 255q0 135 -36.5 253.5t-103 207.5t-156 153.5t-199.5 97.5t-230 33q-150 0 -282.5 -52.5t-230.5 -147t-155 -236t-57 -309.5zM371 717q0 224 132.5 365 t327.5 141q95 0 179.5 -36.5t147 -101.5t98.5 -160.5t36 -207.5q0 -226 -132.5 -366t-328.5 -140q-195 0 -327.5 140.5t-132.5 365.5zM479 1589v201h680v-201h-680z" />
<glyph unicode="&#x14d;" horiz-adv-x="1286" d="M104 539q0 134 44 243.5t119 180t172 108t206 37.5q108 0 204.5 -37.5t171.5 -107.5t119 -180t44 -244t-44 -243.5t-119 -179.5t-171.5 -107.5t-204.5 -37.5q-109 0 -206 37.5t-172 107.5t-119 179.5t-44 243.5zM301 1253v201h678v-201h-678zM354 539q0 -155 81 -248.5 t210 -93.5q128 0 208.5 93.5t80.5 248.5q0 154 -81 250t-208 96q-128 0 -209.5 -96t-81.5 -250z" />
<glyph unicode="&#x14e;" horiz-adv-x="1660" d="M106 717q0 -170 57 -311.5t155 -236t230.5 -146.5t282.5 -52q121 0 230 32.5t199 97t156.5 153.5t103 208t36.5 255q0 135 -36.5 253.5t-103 207.5t-156 153.5t-199.5 97.5t-230 33q-150 0 -282.5 -52.5t-230.5 -147t-155 -236t-57 -309.5zM371 717q0 224 132.5 365 t327.5 141q95 0 179.5 -36.5t147 -101.5t98.5 -160.5t36 -207.5q0 -226 -132.5 -366t-328.5 -140q-195 0 -327.5 140.5t-132.5 365.5zM516 1827h174q3 -52 41 -90.5t94 -38.5q55 0 91.5 38.5t41.5 90.5h172q-2 -118 -88 -201.5t-217 -83.5q-132 0 -219 83.5t-90 201.5z" />
<glyph unicode="&#x14f;" horiz-adv-x="1286" d="M104 539q0 134 44 243.5t119 180t172 108t206 37.5q108 0 204.5 -37.5t171.5 -107.5t119 -180t44 -244t-44 -243.5t-119 -179.5t-171.5 -107.5t-204.5 -37.5q-109 0 -206 37.5t-172 107.5t-119 179.5t-44 243.5zM332 1518h190q7 -152 127 -152q61 0 92.5 40.5t34.5 111.5 h189q-2 -141 -90 -235.5t-226 -94.5q-136 0 -225 94.5t-92 235.5zM354 539q0 -155 81 -248.5t210 -93.5q128 0 208.5 93.5t80.5 248.5q0 154 -81 250t-208 96q-128 0 -209.5 -96t-81.5 -250z" />
<glyph unicode="&#x150;" horiz-adv-x="1660" d="M106 717q0 -170 57 -311.5t155 -236t230.5 -146.5t282.5 -52q121 0 230 32.5t199 97t156.5 153.5t103 208t36.5 255q0 135 -36.5 253.5t-103 207.5t-156 153.5t-199.5 97.5t-230 33q-150 0 -282.5 -52.5t-230.5 -147t-155 -236t-57 -309.5zM371 717q0 224 132.5 365 t327.5 141q95 0 179.5 -36.5t147 -101.5t98.5 -160.5t36 -207.5q0 -226 -132.5 -366t-328.5 -140q-195 0 -327.5 140.5t-132.5 365.5zM535 1550l137 277h221l-162 -277h-196zM901 1550l135 277h224l-164 -277h-195z" />
<glyph unicode="&#x151;" horiz-adv-x="1286" d="M104 539q0 134 44 243.5t119 180t172 108t206 37.5q108 0 204.5 -37.5t171.5 -107.5t119 -180t44 -244t-44 -243.5t-119 -179.5t-171.5 -107.5t-204.5 -37.5q-109 0 -206 37.5t-172 107.5t-119 179.5t-44 243.5zM319 1200l134 326h237l-160 -326h-211zM354 539 q0 -155 81 -248.5t210 -93.5q128 0 208.5 93.5t80.5 248.5q0 154 -81 250t-208 96q-128 0 -209.5 -96t-81.5 -250zM694 1200l133 326h240l-160 -326h-213z" />
<glyph unicode="&#x152;" horiz-adv-x="2306" d="M109 717q0 170 56 311.5t153 235.5t227 146t278 52q147 0 279.5 -53t208.5 -149l2 174h860v-228h-621v-366h590v-226h-590v-387h621v-227h-864v168q-68 -92 -201.5 -144.5t-284.5 -52.5q-148 0 -278 52t-227 146t-153 236t-56 312zM371 717q0 -226 132 -365t328 -139 q206 0 331.5 135t125.5 369q0 231 -125.5 368.5t-331.5 137.5q-195 0 -327.5 -140.5t-132.5 -365.5z" />
<glyph unicode="&#x153;" horiz-adv-x="1996" d="M102 539q0 133 42 243t113 180t162.5 108t192.5 38q138 0 238 -50t168 -163q62 96 165 153.5t226 57.5q220 0 353.5 -147t133.5 -394q0 -32 -4 -98h-735q9 -132 88 -207.5t205 -75.5q67 0 120.5 24t85 55.5t66.5 82.5h7l161 -153q-167 -222 -444 -222t-420 217 q-72 -111 -166.5 -164t-232.5 -53q-103 0 -197 37.5t-167.5 107.5t-117 179.5t-43.5 243.5zM348 539q0 -159 78 -254t203 -95t202.5 95t77.5 254q0 158 -77.5 254t-202.5 96t-203 -96.5t-78 -253.5zM1167 657h488q-3 91 -69 161.5t-169 70.5q-104 0 -171.5 -67.5 t-78.5 -164.5z" />
<glyph unicode="&#x154;" horiz-adv-x="1351" d="M190 0v1434h537q228 0 363 -113.5t135 -319.5q0 -87 -24 -157t-64.5 -116.5t-98 -79t-120.5 -48.5t-136 -22l494 -578h-324l-512 631v-631h-250zM440 793h242q50 0 87 3.5t78 15.5t67 33.5t43.5 60t17.5 91.5q0 63 -21 105.5t-63 64.5t-91.5 30.5t-119.5 8.5h-240v-413z M442 1550l195 277h289l-244 -277h-240z" />
<glyph unicode="&#x155;" horiz-adv-x="804" d="M180 0v1079h226l2 -190q41 100 119 154.5t178 54.5q27 0 59 -4v-258q-46 4 -70 4q-117 0 -189.5 -87.5t-72.5 -238.5v-514h-252zM328 1200l188 326h262l-223 -326h-227z" />
<glyph unicode="&#x156;" horiz-adv-x="1351" d="M190 0v1434h537q228 0 363 -113.5t135 -319.5q0 -87 -24 -157t-64.5 -116.5t-98 -79t-120.5 -48.5t-136 -22l494 -578h-324l-512 631v-631h-250zM440 793h242q50 0 87 3.5t78 15.5t67 33.5t43.5 60t17.5 91.5q0 63 -21 105.5t-63 64.5t-91.5 30.5t-119.5 8.5h-240v-413z M516 -475q133 45 148 147q-10 -2 -27 -2q-48 0 -80.5 35.5t-32.5 83.5q0 49 37 87t96 38q62 0 101 -44.5t39 -111.5q0 -52 -13 -100t-43 -97.5t-87.5 -91t-137.5 -67.5v123z" />
<glyph unicode="&#x157;" horiz-adv-x="804" d="M156 -475q129 45 147 147q-10 -2 -27 -2q-50 0 -81 35t-31 84t37 87t96 38q62 0 100.5 -44.5t38.5 -111.5q0 -52 -13 -100t-42.5 -97.5t-87 -91t-137.5 -67.5v123zM180 0v1079h226l2 -190q41 100 119 154.5t178 54.5q27 0 59 -4v-258q-46 4 -70 4q-117 0 -189.5 -87.5 t-72.5 -238.5v-514h-252z" />
<glyph unicode="&#x158;" horiz-adv-x="1351" d="M190 0v1434h537q228 0 363 -113.5t135 -319.5q0 -87 -24 -157t-64.5 -116.5t-98 -79t-120.5 -48.5t-136 -22l494 -578h-324l-512 631v-631h-250zM240 1827h247l148 -139l147 139h246l-262 -277h-274zM440 793h242q50 0 87 3.5t78 15.5t67 33.5t43.5 60t17.5 91.5 q0 63 -21 105.5t-63 64.5t-91.5 30.5t-119.5 8.5h-240v-413z" />
<glyph unicode="&#x159;" horiz-adv-x="804" d="M113 1526h233l137 -172l140 172h229l-248 -326h-254zM180 0v1079h228l2 -190q40 99 118.5 154t178.5 55q29 0 57 -4v-258q-40 4 -70 4q-116 0 -188 -87.5t-72 -238.5v-514h-254z" />
<glyph unicode="&#x15a;" horiz-adv-x="1171" d="M80 266l201 162q118 -220 323 -223q96 1 156.5 51t60.5 125q0 42 -15 75.5t-37.5 55t-61.5 40.5t-72.5 30.5t-84.5 26.5q-16 5 -24 7q-41 12 -76.5 25t-77 34t-75 44.5t-66 57.5t-54 73.5t-35 91.5t-13.5 111q0 114 57 206t166.5 147t253.5 56q180 -1 294 -70.5 t190 -199.5l-195 -152q-41 91 -114.5 143t-174.5 52q-89 0 -151 -48.5t-62 -123.5q0 -39 17.5 -70.5t35.5 -50t64.5 -38.5t68.5 -27t83 -24q16 -5 24 -7q67 -19 120 -41t107 -59.5t89.5 -84t58 -115.5t22.5 -153q0 -186 -132.5 -304t-354.5 -118q-337 0 -516 295zM440 1550 l195 277h289l-244 -277h-240z" />
<glyph unicode="&#x15b;" horiz-adv-x="1001" d="M96 203l180 151q40 -71 109 -120.5t147 -49.5q58 0 100 28t42 79q0 23 -5.5 41t-20.5 32t-26 23t-38.5 19t-39.5 14t-46 14q-42 12 -68 20.5t-68 25.5t-69.5 33.5t-60 43.5t-51 57.5t-31.5 73.5t-13 92q0 100 54.5 175.5t142.5 113t194 37.5q137 0 229.5 -53.5 t157.5 -155.5l-176 -139q-32 63 -89.5 104t-123.5 41q-61 0 -103 -29.5t-42 -78.5q0 -25 11.5 -45t25.5 -32t43.5 -24.5t45.5 -17t52 -14.5q56 -14 94.5 -27t92 -41.5t86.5 -64t57 -94.5t24 -134q0 -145 -107.5 -237.5t-279.5 -92.5q-140 0 -244 56.5t-186 175.5zM356 1200 l189 326h264l-225 -326h-228z" />
<glyph unicode="&#x15c;" horiz-adv-x="1171" d="M80 266l201 162q118 -220 323 -223q96 1 156.5 51t60.5 125q0 42 -15 75.5t-37.5 55t-61.5 40.5t-72.5 30.5t-84.5 26.5q-16 5 -24 7q-41 12 -76.5 25t-77 34t-75 44.5t-66 57.5t-54 73.5t-35 91.5t-13.5 111q0 114 57 206t166.5 147t253.5 56q180 -1 294 -70.5 t190 -199.5l-195 -152q-41 91 -114.5 143t-174.5 52q-89 0 -151 -48.5t-62 -123.5q0 -39 17.5 -70.5t35.5 -50t64.5 -38.5t68.5 -27t83 -24q16 -5 24 -7q67 -19 120 -41t107 -59.5t89.5 -84t58 -115.5t22.5 -153q0 -186 -132.5 -304t-354.5 -118q-337 0 -516 295zM193 1548 l249 277h275l264 -277h-246l-147 142l-150 -142h-245z" />
<glyph unicode="&#x15d;" horiz-adv-x="1001" d="M96 203l180 151q40 -71 109 -120.5t147 -49.5q58 0 100 28t42 79q0 23 -5.5 41t-20.5 32t-26 23t-38.5 19t-39.5 14t-46 14q-42 12 -68 20.5t-68 25.5t-69.5 33.5t-60 43.5t-51 57.5t-31.5 73.5t-13 92q0 100 54.5 175.5t142.5 113t194 37.5q137 0 229.5 -53.5 t157.5 -155.5l-176 -139q-32 63 -89.5 104t-123.5 41q-61 0 -103 -29.5t-42 -78.5q0 -25 11.5 -45t25.5 -32t43.5 -24.5t45.5 -17t52 -14.5q56 -14 94.5 -27t92 -41.5t86.5 -64t57 -94.5t24 -134q0 -145 -107.5 -237.5t-279.5 -92.5q-140 0 -244 56.5t-186 175.5zM156 1206 l235 326h254l250 -326h-231l-140 170l-137 -170h-231z" />
<glyph unicode="&#x15e;" horiz-adv-x="1171" d="M80 266l201 162q118 -220 323 -223q96 1 156.5 51t60.5 125q0 42 -15 75.5t-37.5 55t-61.5 40.5t-72.5 30.5t-84.5 26.5q-16 5 -24 7q-41 12 -76.5 25t-77 34t-75 44.5t-66 57.5t-54 73.5t-35 91.5t-13.5 111q0 114 57 206t166.5 147t253.5 56q180 -1 294 -70.5 t190 -199.5l-195 -152q-41 91 -114.5 143t-174.5 52q-89 0 -151 -48.5t-62 -123.5q0 -39 17.5 -70.5t35.5 -50t64.5 -38.5t68.5 -27t83 -24q16 -5 24 -7q67 -19 120 -41t107 -59.5t89.5 -84t58 -115.5t22.5 -153q0 -176 -118.5 -292t-321.5 -128l-22 -55q63 -6 110 -53.5 t47 -118.5q0 -85 -60.5 -144t-170.5 -59q-78 0 -141 29v145q53 -34 110 -34q92 0 92 61q0 68 -100 68h-76l60 168q-266 39 -412 286z" />
<glyph unicode="&#x15f;" horiz-adv-x="1001" d="M96 203l180 151q40 -71 109 -120.5t147 -49.5q58 0 100 28t42 79q0 23 -5.5 41t-20.5 32t-26 23t-38.5 19t-39.5 14t-46 14q-42 12 -68 20.5t-68 25.5t-69.5 33.5t-60 43.5t-51 57.5t-31.5 73.5t-13 92q0 100 54.5 175.5t142.5 113t194 37.5q137 0 229.5 -53.5 t157.5 -155.5l-176 -139q-32 63 -89.5 104t-123.5 41q-61 0 -103 -29.5t-42 -78.5q0 -25 11.5 -45t25.5 -32t43.5 -24.5t45.5 -17t52 -14.5q56 -14 94.5 -27t92 -41.5t86.5 -64t57 -94.5t24 -134q0 -137 -97.5 -228.5t-256.5 -101.5l-22 -53q63 -6 110 -53.5t47 -118.5 q0 -85 -60.5 -144t-170.5 -59q-78 0 -141 29v145q53 -34 110 -34q90 0 90 61q0 68 -98 68h-76l62 170q-190 40 -314 221z" />
<glyph unicode="&#x160;" horiz-adv-x="1171" d="M80 266l201 162q118 -220 323 -223q96 1 156.5 51t60.5 125q0 42 -15 75.5t-37.5 55t-61.5 40.5t-72.5 30.5t-84.5 26.5q-16 5 -24 7q-41 12 -76.5 25t-77 34t-75 44.5t-66 57.5t-54 73.5t-35 91.5t-13.5 111q0 114 57 206t166.5 147t253.5 56q180 -1 294 -70.5 t190 -199.5l-195 -152q-41 91 -114.5 143t-174.5 52q-89 0 -151 -48.5t-62 -123.5q0 -39 17.5 -70.5t35.5 -50t64.5 -38.5t68.5 -27t83 -24q16 -5 24 -7q67 -19 120 -41t107 -59.5t89.5 -84t58 -115.5t22.5 -153q0 -186 -132.5 -304t-354.5 -118q-337 0 -516 295zM180 1827 h248l147 -139l148 139h246l-262 -277h-277z" />
<glyph unicode="&#x161;" horiz-adv-x="1001" d="M96 203l180 151q40 -71 109 -120.5t147 -49.5q58 0 100 28t42 79q0 23 -5.5 41t-20.5 32t-26 23t-38.5 19t-39.5 14t-46 14q-42 12 -68 20.5t-68 25.5t-69.5 33.5t-60 43.5t-51 57.5t-31.5 73.5t-13 92q0 100 54.5 175.5t142.5 113t194 37.5q137 0 229.5 -53.5 t157.5 -155.5l-176 -139q-32 63 -89.5 104t-123.5 41q-61 0 -103 -29.5t-42 -78.5q0 -25 11.5 -45t25.5 -32t43.5 -24.5t45.5 -17t52 -14.5q56 -14 94.5 -27t92 -41.5t86.5 -64t57 -94.5t24 -134q0 -145 -107.5 -237.5t-279.5 -92.5q-140 0 -244 56.5t-186 175.5zM145 1532 h234l137 -170l139 170h230l-248 -326h-254z" />
<glyph unicode="&#x162;" horiz-adv-x="1114" d="M41 1206v228h1032v-228h-389v-1206h-45l-37 -84q63 -6 110.5 -53.5t47.5 -118.5q0 -85 -61 -144t-171 -59q-84 0 -141 29v145q50 -37 111 -37q90 0 90 62q0 35 -27 52.5t-72 17.5h-75l69 190h-53v1206h-389z" />
<glyph unicode="&#x163;" horiz-adv-x="784" d="M61 860v219h181v342h254v-342h249v-219h-249v-860h-45l-37 -84q64 -6 110.5 -53t46.5 -119q0 -85 -60 -144t-171 -59q-85 0 -139 29v145q47 -37 108 -37q92 0 92 62q0 35 -27.5 52.5t-72.5 17.5h-76l70 190h-53v860h-181z" />
<glyph unicode="&#x164;" horiz-adv-x="1114" d="M41 1206v228h1032v-228h-389v-1206h-254v1206h-389zM162 1827h248l147 -139l148 139h245l-262 -277h-274z" />
<glyph unicode="&#x165;" horiz-adv-x="784" d="M61 860v219h181v342h254v-342h249v-219h-249v-860h-254v860h-181zM592 1186l18 444h209l-51 -444h-176z" />
<glyph unicode="&#x166;" horiz-adv-x="1114" d="M41 1206v228h1032v-228h-389v-1206h-254v1206h-389z" />
<glyph unicode="&#x167;" horiz-adv-x="784" d="M61 868v211h183v328h254v-328h247v-211h-247v-188h247v-193h-247v-487h-254v487h-181v193h181v188h-183z" />
<glyph unicode="&#x168;" horiz-adv-x="1423" d="M156 594v840h252v-824q0 -198 78 -299.5t229 -101.5q149 0 226 101.5t77 299.5v824h254v-840q0 -159 -42 -280t-118 -195t-176 -111t-221 -37q-122 0 -222.5 37t-176.5 111t-118 195t-42 280zM375 1610v194q91 82 184 82q61 0 114 -23.5t100 -47t93 -23.5q89 0 170 88 v-194q-92 -82 -184 -82q-56 0 -106 24t-97.5 48t-95.5 24q-101 0 -178 -90z" />
<glyph unicode="&#x169;" d="M170 408v671h254v-600q0 -137 40 -207.5t132 -70.5q99 0 154 88.5t55 220.5v569h252v-1079h-228v150q-47 -81 -124 -127t-177 -46q-358 0 -358 431zM279 1235v192q94 84 184 84q49 0 93.5 -15t72.5 -33t66 -33t75 -15q86 0 170 88v-192q-26 -23 -45.5 -37.5t-58.5 -30.5 t-80 -16q-44 0 -85.5 15t-69 33t-66.5 33t-78 15q-100 0 -178 -88z" />
<glyph unicode="&#x16a;" horiz-adv-x="1423" d="M156 594v840h252v-824q0 -198 78 -299.5t229 -101.5q149 0 226 101.5t77 299.5v824h254v-840q0 -159 -42 -280t-118 -195t-176 -111t-221 -37q-122 0 -222.5 37t-176.5 111t-118 195t-42 280zM362 1589v201h678v-201h-678z" />
<glyph unicode="&#x16b;" d="M172 408v671h252v-600q0 -137 40 -207.5t132 -70.5q100 0 155.5 88t55.5 221v569h252v-1079h-228l-2 150q-46 -80 -123.5 -126.5t-177.5 -46.5q-356 0 -356 431zM262 1253v201h678v-201h-678z" />
<glyph unicode="&#x16c;" horiz-adv-x="1423" d="M156 594v840h252v-824q0 -198 78 -299.5t229 -101.5q149 0 226 101.5t77 299.5v824h254v-840q0 -159 -42 -280t-118 -195t-176 -111t-221 -37q-122 0 -222.5 37t-176.5 111t-118 195t-42 280zM397 1827h174q3 -52 41 -90.5t93 -38.5t92.5 38.5t40.5 90.5h174 q-3 -119 -89 -202t-218 -83t-219 83.5t-89 201.5z" />
<glyph unicode="&#x16d;" d="M170 408v671h254v-600q0 -137 40 -207.5t132 -70.5q99 0 154 88.5t55 220.5v569h252v-1079h-228v150q-47 -81 -124 -127t-177 -46q-358 0 -358 431zM297 1518h190q7 -152 125 -152q61 0 92.5 40.5t36.5 111.5h189q-2 -141 -91 -235.5t-227 -94.5q-136 0 -224 94.5 t-91 235.5z" />
<glyph unicode="&#x16e;" horiz-adv-x="1423" d="M156 594v840h252v-824q0 -198 78 -299.5t229 -101.5q149 0 226 101.5t77 299.5v824h254v-840q0 -159 -42 -280t-118 -195t-176 -111t-221 -37q-122 0 -222.5 37t-176.5 111t-118 195t-42 280zM483 1714q0 88 62 144.5t160 56.5q100 0 160.5 -56t60.5 -145t-60.5 -145 t-160.5 -56q-98 0 -160 56.5t-62 144.5zM627 1714q0 -33 22.5 -56.5t55.5 -23.5q35 0 56 23t21 57t-21 57t-56 23q-33 0 -55.5 -23.5t-22.5 -56.5z" />
<glyph unicode="&#x16f;" d="M170 408v671h254v-600q0 -137 40 -207.5t132 -70.5q99 0 154 88.5t55 220.5v569h252v-1079h-228v150q-47 -81 -124 -127t-177 -46q-358 0 -358 431zM365 1374q0 98 69 158.5t174 60.5t174.5 -60.5t69.5 -158.5t-69.5 -158.5t-174.5 -60.5t-174 60.5t-69 158.5zM522 1374 q0 -39 23.5 -62.5t62.5 -23.5t62.5 23.5t23.5 62.5q0 37 -23.5 61.5t-62.5 24.5t-62.5 -24.5t-23.5 -61.5z" />
<glyph unicode="&#x170;" horiz-adv-x="1423" d="M156 594v840h252v-824q0 -198 78 -299.5t229 -101.5q149 0 226 101.5t77 299.5v824h254v-840q0 -159 -42 -280t-118 -195t-176 -111t-221 -37q-122 0 -222.5 37t-176.5 111t-118 195t-42 280zM377 1550l135 277h223l-162 -277h-196zM743 1550l136 277h223l-164 -277h-195 z" />
<glyph unicode="&#x171;" d="M170 408v671h254v-600q0 -137 40 -207.5t132 -70.5q99 0 154 88.5t55 220.5v569h252v-1079h-228v150q-47 -81 -124 -127t-177 -46q-358 0 -358 431zM283 1200l135 326h235l-159 -326h-211zM657 1200l136 326h237l-160 -326h-213z" />
<glyph unicode="&#x172;" horiz-adv-x="1423" d="M156 594v840h252v-824q0 -198 78 -299.5t229 -101.5q149 0 226 101.5t77 299.5v824h254v-840q0 -261 -108.5 -412.5t-297.5 -193.5q-102 -70 -102 -135q0 -76 98 -76q31 0 49 6v-162q-39 -10 -88 -10q-97 0 -166 48.5t-69 139.5q0 98 94 172q-116 5 -210.5 44.5t-166 114 t-110.5 192.5t-39 272z" />
<glyph unicode="&#x173;" d="M170 408v671h254v-600q0 -137 40 -207.5t132 -70.5q99 0 154 88.5t55 220.5v569h252v-1079h-21q-51 -29 -87 -67.5t-36 -79.5q0 -76 97 -76q31 0 49 6v-162q-36 -10 -86 -10q-98 0 -168 48.5t-70 139.5q0 119 133 201h-39v150q-47 -81 -124 -127t-177 -46 q-358 0 -358 431z" />
<glyph unicode="&#x174;" horiz-adv-x="1943" d="M61 1434h273l233 -1143l267 1143h278l266 -1143l238 1143h270l-342 -1434h-325l-250 1001l-246 -1001h-320zM565 1548l250 277h275l264 -277h-246l-147 142l-150 -142h-246z" />
<glyph unicode="&#x175;" horiz-adv-x="1667" d="M72 1079h260l170 -764l198 764h283l193 -776l170 776h247l-282 -1079h-267l-213 760l-213 -760h-264zM477 1214l238 326h254l248 -326h-230l-139 170l-139 -170h-232z" />
<glyph unicode="&#x176;" horiz-adv-x="1255" d="M18 1434h291l322 -619l323 619h285l-483 -873v-561h-252v561zM221 1548l250 277h274l265 -277h-248l-148 142l-147 -142h-246z" />
<glyph unicode="&#x177;" horiz-adv-x="1120" d="M47 1079h270l263 -657l258 657h268l-637 -1468h-254l238 539zM219 1206l238 326h252l249 -326h-229l-139 170l-139 -170h-232z" />
<glyph unicode="&#x178;" horiz-adv-x="1255" d="M18 1434h291l322 -619l323 619h285l-483 -873v-561h-252v561zM266 1690q0 63 41 103t105 40q63 0 102 -40t39 -103t-39 -102.5t-102 -39.5q-65 0 -105.5 39.5t-40.5 102.5zM711 1690q0 63 40.5 103t104.5 40q63 0 102 -40t39 -103t-39 -102.5t-102 -39.5 q-64 0 -104.5 39.5t-40.5 102.5z" />
<glyph unicode="&#x179;" horiz-adv-x="1204" d="M109 0v209l682 997h-674v228h979v-211l-682 -996h684v-227h-989zM420 1550l194 277h287l-242 -277h-239z" />
<glyph unicode="&#x17a;" horiz-adv-x="1032" d="M121 0v221l497 639h-489v219h764v-219l-494 -641h500v-219h-778zM369 1200l188 326h262l-223 -326h-227z" />
<glyph unicode="&#x17b;" horiz-adv-x="1204" d="M109 0v209l682 997h-674v228h979v-211l-682 -996h684v-227h-989zM422 1696q0 73 50.5 120.5t125.5 47.5q76 0 127 -47.5t51 -120.5q0 -72 -51 -119t-127 -47q-75 0 -125.5 47t-50.5 119z" />
<glyph unicode="&#x17c;" horiz-adv-x="1032" d="M121 0v221l497 639h-489v219h764v-219l-494 -641h500v-219h-778zM328 1372q0 73 50.5 120.5t125.5 47.5q76 0 127 -47.5t51 -120.5q0 -72 -51 -119t-127 -47q-75 0 -125.5 47t-50.5 119z" />
<glyph unicode="&#x17d;" horiz-adv-x="1204" d="M109 0v209l682 997h-674v228h979v-211l-682 -996h684v-227h-989zM184 1827h248l148 -139l147 139h246l-262 -277h-275z" />
<glyph unicode="&#x17e;" horiz-adv-x="1040" d="M121 0v221l497 639h-489v219h764v-219l-494 -641h500v-219h-778zM164 1526h231l140 -172l139 172h229l-250 -326h-252z" />
<glyph unicode="&#x17f;" horiz-adv-x="694" d="M90 868v211h125v162q0 136 77.5 210.5t211.5 74.5q92 0 145 -43v-207q-36 39 -90 39q-43 0 -65.5 -28t-22.5 -81v-1206h-254v868h-127z" />
<glyph unicode="&#x192;" horiz-adv-x="868" d="M-84 -406l33 218q53 -21 92 -21q69 0 111.5 40t56.5 140l123 877h-127l28 211h125l25 162q20 136 107.5 210t220.5 74q93 0 139 -43l-29 -209q-31 45 -92 45q-47 0 -77.5 -29.5t-39.5 -88.5l-20 -121h188l-26 -211h-168l-125 -877q-25 -188 -134 -292.5t-255 -104.5 q-86 0 -156 20z" />
<glyph unicode="&#x218;" horiz-adv-x="1171" d="M80 266l201 162q118 -220 323 -223q96 1 156.5 51t60.5 125q0 42 -15 75.5t-37.5 55t-61.5 40.5t-72.5 30.5t-84.5 26.5q-16 5 -24 7q-41 12 -76.5 25t-77 34t-75 44.5t-66 57.5t-54 73.5t-35 91.5t-13.5 111q0 114 57 206t166.5 147t253.5 56q180 -1 294 -70.5 t190 -199.5l-195 -152q-41 91 -114.5 143t-174.5 52q-89 0 -151 -48.5t-62 -123.5q0 -39 17.5 -70.5t35.5 -50t64.5 -38.5t68.5 -27t83 -24q16 -5 24 -7q67 -19 120 -41t107 -59.5t89.5 -84t58 -115.5t22.5 -153q0 -186 -132.5 -304t-354.5 -118q-337 0 -516 295zM422 -475 q129 45 147 147q-10 -2 -26 -2q-50 0 -81.5 35t-31.5 84t37 87t96 38q62 0 100.5 -44.5t38.5 -111.5q0 -52 -13.5 -100t-43 -97.5t-87 -91t-136.5 -67.5v123z" />
<glyph unicode="&#x219;" horiz-adv-x="989" d="M96 203l180 151q40 -71 109 -120.5t147 -49.5q58 0 100 28t42 79q0 23 -5.5 41t-20.5 32t-26 23t-38.5 19t-39.5 14t-46 14q-42 12 -68 20.5t-68 25.5t-69.5 33.5t-60 43.5t-51 57.5t-31.5 73.5t-13 92q0 100 54.5 175.5t142.5 113t194 37.5q137 0 229.5 -53.5 t157.5 -155.5l-176 -139q-32 63 -89.5 104t-123.5 41q-61 0 -103 -29.5t-42 -78.5q0 -25 11.5 -45t25.5 -32t43.5 -24.5t45.5 -17t52 -14.5q56 -14 94.5 -27t92 -41.5t86.5 -64t57 -94.5t24 -134q0 -145 -107.5 -237.5t-279.5 -92.5q-140 0 -244 56.5t-186 175.5zM334 -475 q129 45 147 147q-12 -2 -28 -2q-48 0 -80.5 35.5t-32.5 83.5t38 86.5t97 38.5q62 0 100.5 -44.5t38.5 -111.5q0 -52 -13.5 -100t-43 -97.5t-87 -91t-136.5 -67.5v123z" />
<glyph unicode="&#x21a;" horiz-adv-x="1114" d="M41 1206v228h1032v-228h-389v-1206h-254v1206h-389zM387 -475q130 45 145 147q-10 -2 -26 -2q-48 0 -80.5 35.5t-32.5 83.5q0 49 37.5 87t97.5 38q62 0 100 -44.5t38 -111.5q0 -52 -13 -100t-43 -97.5t-87 -91t-136 -67.5v123z" />
<glyph unicode="&#x21b;" horiz-adv-x="784" d="M61 860v219h181v342h254v-342h249v-219h-249v-860h-254v860h-181zM217 -475q61 21 100 58.5t48 88.5q-10 -2 -27 -2q-50 0 -82.5 35t-32.5 84q0 48 38 86.5t97 38.5q62 0 101 -44.5t39 -111.5q0 -51 -13.5 -99.5t-43.5 -98t-87.5 -91t-136.5 -67.5v123z" />
<glyph unicode="&#x2c6;" horiz-adv-x="925" d="M106 1206l236 326h254l248 -326h-230l-139 172l-137 -172h-232z" />
<glyph unicode="&#x2c7;" horiz-adv-x="894" d="M96 1526h232l137 -172l139 172h232l-250 -326h-254z" />
<glyph unicode="&#x2d8;" horiz-adv-x="837" d="M102 1518h191q7 -152 125 -152q61 0 92.5 40.5t36.5 111.5h188q-2 -141 -90.5 -235.5t-226.5 -94.5q-135 0 -224 94.5t-92 235.5z" />
<glyph unicode="&#x2d9;" horiz-adv-x="569" d="M111 1372q0 73 51 120.5t127 47.5t127 -47.5t51 -120.5q0 -72 -51 -119t-127 -47t-127 47t-51 119z" />
<glyph unicode="&#x2da;" horiz-adv-x="665" d="M96 1366q0 97 70 158t174 61t173 -61t69 -158q0 -98 -68.5 -158.5t-173.5 -60.5t-174.5 60.5t-69.5 158.5zM254 1366q0 -39 23.5 -62.5t62.5 -23.5t61.5 23.5t22.5 62.5q0 38 -22.5 62t-61.5 24t-62.5 -24.5t-23.5 -61.5z" />
<glyph unicode="&#x2db;" horiz-adv-x="964" d="M274 -201q0 132 166 219l133 -18q-50 -29 -85 -67.5t-35 -79.5q0 -76 96 -76q31 0 49 6v-162q-36 -10 -86 -10q-98 0 -168 48.5t-70 139.5z" />
<glyph unicode="&#x2dc;" horiz-adv-x="1083" d="M205 1235v192q94 84 184 84q48 0 92.5 -15t72.5 -33t65.5 -33t74.5 -15q86 0 170 88v-192q-89 -84 -182 -84q-56 0 -106 24t-97.5 48t-95.5 24q-100 0 -178 -88z" />
<glyph unicode="&#x2dd;" horiz-adv-x="1056" d="M178 1200l133 326h238l-160 -326h-211zM553 1200l135 326h238l-160 -326h-213z" />
<glyph unicode="&#x326;" horiz-adv-x="0" d="M330 -475q129 45 147 147q-10 -2 -26 -2q-50 0 -81.5 35t-31.5 84t37 87t96 38q62 0 100.5 -44.5t38.5 -111.5q0 -52 -13.5 -100t-43 -97.5t-87 -91t-136.5 -67.5v123z" />
<glyph unicode="&#x1e80;" horiz-adv-x="1943" d="M61 1434h273l233 -1143l267 1143h278l266 -1143l238 1143h270l-342 -1434h-325l-250 1001l-246 -1001h-320zM659 1827h269l194 -277h-219z" />
<glyph unicode="&#x1e81;" horiz-adv-x="1667" d="M72 1079h260l170 -764l198 764h283l193 -776l170 776h247l-282 -1079h-267l-213 760l-213 -760h-264zM510 1526h264l187 -326h-226z" />
<glyph unicode="&#x1e82;" horiz-adv-x="1943" d="M61 1434h273l233 -1143l267 1143h278l266 -1143l238 1143h270l-342 -1434h-325l-250 1001l-246 -1001h-320zM811 1550l195 277h286l-241 -277h-240z" />
<glyph unicode="&#x1e83;" horiz-adv-x="1667" d="M72 1079h260l170 -764l198 764h283l193 -776l170 776h247l-282 -1079h-267l-213 760l-213 -760h-264zM692 1200l189 326h264l-225 -326h-228z" />
<glyph unicode="&#x1e84;" horiz-adv-x="1943" d="M61 1434h273l233 -1143l267 1143h278l266 -1143l238 1143h270l-342 -1434h-325l-250 1001l-246 -1001h-320zM612 1690q0 63 40.5 103t103.5 40t103 -40t40 -103t-40 -102.5t-103 -39.5t-103.5 39.5t-40.5 102.5zM1057 1690q0 63 40 103t103 40t103 -40t40 -103 t-40 -102.5t-103 -39.5t-103 39.5t-40 102.5z" />
<glyph unicode="&#x1e85;" horiz-adv-x="1667" d="M72 1079h260l170 -764l198 764h283l193 -776l170 776h247l-282 -1079h-267l-213 760l-213 -760h-264zM473 1382q0 63 40.5 102.5t104.5 39.5q63 0 102.5 -39.5t39.5 -102.5t-39.5 -102t-102.5 -39q-65 0 -105 39t-40 102zM918 1382q0 63 40.5 102.5t104.5 39.5 q63 0 102 -39.5t39 -102.5t-39 -102t-102 -39q-65 0 -105 39t-40 102z" />
<glyph unicode="&#x1ef2;" horiz-adv-x="1255" d="M18 1434h291l322 -619l323 619h285l-483 -873v-561h-252v561zM272 1827h267l194 -277h-219z" />
<glyph unicode="&#x1ef3;" horiz-adv-x="1120" d="M47 1079h270l263 -657l258 657h268l-637 -1468h-254l238 539zM287 1526h262l188 -326h-225z" />
<glyph unicode="&#x2000;" horiz-adv-x="957" />
<glyph unicode="&#x2001;" horiz-adv-x="1915" />
<glyph unicode="&#x2002;" horiz-adv-x="957" />
<glyph unicode="&#x2003;" horiz-adv-x="1915" />
<glyph unicode="&#x2004;" horiz-adv-x="638" />
<glyph unicode="&#x2005;" horiz-adv-x="478" />
<glyph unicode="&#x2006;" horiz-adv-x="319" />
<glyph unicode="&#x2007;" horiz-adv-x="319" />
<glyph unicode="&#x2008;" horiz-adv-x="239" />
<glyph unicode="&#x2009;" horiz-adv-x="383" />
<glyph unicode="&#x200a;" horiz-adv-x="106" />
<glyph unicode="&#x2010;" horiz-adv-x="813" d="M98 520v223h615v-223h-615z" />
<glyph unicode="&#x2011;" horiz-adv-x="813" d="M98 520v223h615v-223h-615z" />
<glyph unicode="&#x2012;" horiz-adv-x="813" d="M98 520v223h615v-223h-615z" />
<glyph unicode="&#x2013;" horiz-adv-x="1163" d="M98 520v223h965v-223h-965z" />
<glyph unicode="&#x2014;" horiz-adv-x="2187" d="M98 520v223h1989v-223h-1989z" />
<glyph unicode="&#x2018;" horiz-adv-x="569" d="M98 1001q0 54 10 106t35 108.5t64 103.5t102 88t144 66v-168q-166 -59 -185 -193q14 4 33 4q64 0 103.5 -45.5t39.5 -109.5q0 -67 -47 -115.5t-125 -48.5q-79 0 -126.5 56t-47.5 148z" />
<glyph unicode="&#x2019;" horiz-adv-x="569" d="M139 829v168q167 64 183 193q-12 -2 -31 -2q-64 0 -105 45t-41 108q0 68 46.5 116t125.5 48t127 -55.5t48 -146.5q0 -70 -16.5 -135.5t-54.5 -132.5t-110 -121t-172 -85z" />
<glyph unicode="&#x201a;" horiz-adv-x="569" d="M98 -182q167 61 183 192q-12 -4 -31 -4q-64 0 -105 46t-41 110q0 67 47 115.5t125 48.5q79 0 127 -56.5t48 -148.5q0 -69 -16.5 -134.5t-54.5 -131.5t-110 -120t-172 -85v168z" />
<glyph unicode="&#x201c;" horiz-adv-x="1011" d="M98 999q0 69 17 134.5t55 131.5t110.5 120t172.5 85v-167q-166 -59 -185 -193q14 4 33 4q64 0 103.5 -46t39.5 -110q0 -67 -47 -115t-125 -48q-79 0 -126.5 56t-47.5 148zM543 999q0 69 16.5 134t54 131.5t109.5 120.5t172 85v-167q-165 -60 -184 -193q14 4 32 4 q64 0 105 -46t41 -110q0 -66 -47.5 -114.5t-124.5 -48.5q-81 0 -127.5 55.5t-46.5 148.5z" />
<glyph unicode="&#x201d;" horiz-adv-x="1011" d="M139 834v165q167 64 183 193q-12 -2 -31 -2q-64 0 -105 45.5t-41 110.5q0 67 47 115t125 48q79 0 127 -56t48 -148q0 -70 -16.5 -135t-54.5 -131.5t-110 -120t-172 -84.5zM582 834v165q166 64 182 193q-12 -2 -31 -2q-64 0 -104.5 45.5t-40.5 110.5q0 66 47.5 114.5 t124.5 48.5q79 0 126.5 -56t47.5 -148q0 -55 -9.5 -107t-34.5 -108t-63.5 -102.5t-101 -87.5t-143.5 -66z" />
<glyph unicode="&#x201e;" horiz-adv-x="1011" d="M98 -182q167 61 183 192q-12 -4 -31 -4q-64 0 -105 46t-41 110q0 67 47 115.5t125 48.5q79 0 127 -56.5t48 -148.5q0 -69 -16.5 -134.5t-54.5 -131.5t-110 -120t-172 -85v168zM541 -182q166 60 182 192q-12 -4 -31 -4q-64 0 -104.5 46t-40.5 110q0 66 48 115t124 49 q79 0 126.5 -56t47.5 -149q0 -69 -16.5 -134t-54 -131.5t-109.5 -120.5t-172 -85v168z" />
<glyph unicode="&#x2020;" horiz-adv-x="1169" d="M98 791v223h361v420h252v-420h358v-223h-358v-936h-252v936h-361z" />
<glyph unicode="&#x2021;" horiz-adv-x="1169" d="M98 791v223h361v420h252v-420h358v-223h-358v-203h280v-223h-280v-510h-252v510h-281v223h281v203h-361z" />
<glyph unicode="&#x2022;" horiz-adv-x="1122" d="M143 733q0 180 119 299t299 119t299 -119t119 -299t-119 -299t-299 -119t-299 119t-119 299z" />
<glyph unicode="&#x2026;" horiz-adv-x="1830" d="M111 156q0 75 49.5 123.5t124.5 48.5q73 0 121.5 -49t48.5 -123q0 -72 -49 -121t-121 -49q-75 0 -124.5 49t-49.5 121zM750 156q0 75 49.5 123.5t124.5 48.5q72 0 121 -49t49 -123q0 -72 -49 -121t-121 -49q-75 0 -124.5 49t-49.5 121zM1389 156q0 75 49 123.5t123 48.5 q73 0 121.5 -49t48.5 -123q0 -72 -49 -121t-121 -49q-73 0 -122.5 49t-49.5 121z" />
<glyph unicode="&#x202f;" horiz-adv-x="383" />
<glyph unicode="&#x2030;" horiz-adv-x="2408" d="M115 1137q0 132 97.5 228.5t233.5 96.5q133 0 230.5 -96.5t97.5 -228.5q0 -136 -97 -235t-231 -99q-136 0 -233.5 98.5t-97.5 235.5zM154 0l1103 1434h244l-1102 -1434h-245zM295 1135q0 -63 43.5 -106.5t105.5 -43.5q60 0 103 43.5t43 106.5q0 60 -43 102.5t-103 42.5 q-62 0 -105.5 -42.5t-43.5 -102.5zM887 303q0 134 98 230t234 96q134 0 230.5 -96.5t96.5 -229.5q0 -136 -96.5 -234t-230.5 -98q-137 0 -234.5 97.5t-97.5 234.5zM1073 301q0 -60 42.5 -101.5t103.5 -41.5q57 0 98 41.5t41 101.5q0 58 -41 99.5t-98 41.5q-61 0 -103.5 -41 t-42.5 -100zM1636 303q0 133 98.5 229.5t235.5 96.5q134 0 231 -96.5t97 -229.5q0 -136 -97 -234t-231 -98q-137 0 -235.5 98t-98.5 234zM1825 301q0 -60 41.5 -101.5t101.5 -41.5q58 0 99.5 42t41.5 101q0 58 -42 99.5t-99 41.5q-60 0 -101.5 -41t-41.5 -100z" />
<glyph unicode="&#x2039;" horiz-adv-x="714" d="M111 528v205l483 334v-236l-303 -198l303 -201v-233z" />
<glyph unicode="&#x203a;" horiz-adv-x="714" d="M123 199v233l303 201l-303 198v236l483 -334v-205z" />
<glyph unicode="&#x2044;" horiz-adv-x="301" d="M-512 0l1106 1434h219l-1106 -1434h-219z" />
<glyph unicode="&#x205f;" horiz-adv-x="478" />
<glyph unicode="&#x20ac;" horiz-adv-x="1380" d="M10 500v151h154q-2 20 -2 66q0 26 4 80h-156v151h185q46 158 153.5 275.5t253.5 178t313 60.5q222 0 383 -90l-84 -221q-123 74 -303 74q-141 0 -261 -75t-183 -202h661l-59 -151h-647q-6 -41 -6 -80q0 -26 4 -66h596l-60 -151h-499q59 -138 186.5 -215.5t288.5 -77.5 q102 0 181 23t167 77l4 -4v-244q-154 -88 -369 -88q-171 0 -319.5 63t-255.5 183.5t-150 282.5h-180z" />
<glyph unicode="&#x2122;" horiz-adv-x="2045" d="M98 1233v201h680v-201h-227v-725h-223v725h-230zM819 508l107 926h288l160 -533l160 533h291l108 -926h-221l-65 612l-183 -612h-170l-188 608l-55 -608h-232z" />
<glyph unicode="&#x2190;" horiz-adv-x="1808" d="M121 717q0 112 104 201l514 430h353l-619 -510h1237v-242h-1239l621 -516h-353l-514 434q-104 91 -104 203z" />
<glyph unicode="&#x2191;" horiz-adv-x="1525" d="M131 463l512 618v-1237h242v1237l514 -618v352l-434 514q-93 103 -203 103q-111 0 -201 -103l-430 -514v-352z" />
<glyph unicode="&#x2192;" horiz-adv-x="1808" d="M98 596v242h1237l-618 510h352l514 -430q105 -90 105 -201t-105 -203l-514 -434h-352l620 516h-1239z" />
<glyph unicode="&#x2193;" horiz-adv-x="1525" d="M131 618l432 -514q92 -102 203 -102q114 0 201 102l432 514v353l-512 -619v1237h-242v-1237l-514 619v-353z" />
<glyph unicode="&#x2196;" horiz-adv-x="1542" d="M178 324v671q0 149 68 217t217 68h670l233 -231h-784l876 -877l-172 -170l-876 875l2 -787z" />
<glyph unicode="&#x2197;" horiz-adv-x="1542" d="M90 174l877 877l-791 -2l236 233h671q149 0 217 -68.5t68 -218.5v-667l-231 -234v785l-877 -877z" />
<glyph unicode="&#x2198;" horiz-adv-x="1542" d="M86 1120l170 172l877 -876l-3 788l234 -233v-672q0 -149 -68 -217t-217 -68h-667l-234 232h783z" />
<glyph unicode="&#x2199;" horiz-adv-x="1542" d="M178 285v669l232 234v-785l876 877l172 -172l-878 -877l788 2l-233 -233h-672q-149 0 -217 68t-68 217z" />
<glyph unicode="&#x2212;" horiz-adv-x="1163" d="M98 623v223h965v-223h-965z" />
<glyph unicode="&#x2248;" horiz-adv-x="1163" d="M51 309q2 156 83 264.5t222 108.5q65 0 121 -18t93 -43.5t69 -51t65 -43.5t66 -18q106 0 109 135h223q-3 -159 -79 -265t-208 -106q-64 0 -119 17.5t-93 43t-71 51t-67.5 43t-67.5 17.5q-118 0 -125 -135h-221zM51 778q2 156 83 264.5t222 108.5q65 0 121 -18t93 -43.5 t69 -51t65 -43.5t66 -18q106 0 109 135h223q-3 -159 -79 -265t-208 -106q-64 0 -119 17.5t-93 43t-71 51t-67.5 43t-67.5 17.5q-118 0 -125 -135h-221z" />
<glyph unicode="&#x2260;" horiz-adv-x="1163" d="M98 365v223h348l127 231h-475v225h598l142 256h153l-141 -256h213v-225h-336l-127 -231h463v-223h-586l-147 -271h-154l148 271h-226z" />
<glyph unicode="&#x2264;" horiz-adv-x="1163" d="M109 111v223h962v-223h-962zM109 752v227l962 338v-227l-676 -222l676 -219v-233z" />
<glyph unicode="&#x2265;" horiz-adv-x="1163" d="M98 111v223h965v-223h-965zM98 416v233l676 219l-676 222v227l965 -338v-227z" />
<glyph unicode="&#x25fc;" horiz-adv-x="1075" d="M0 0v1075h1075v-1075h-1075z" />
<glyph horiz-adv-x="1515" d="M106 719q0 160 56.5 298t157 236t244.5 153.5t313 55.5q140 0 247.5 -33.5t204.5 -105.5v-287l-6 -4q-95 98 -203 142.5t-243 44.5q-219 0 -359.5 -136t-140.5 -358q0 -231 140 -370.5t357 -139.5q147 0 234 68v309l-428 -2v227h659v-698q-199 -148 -475 -148 q-168 0 -310 56.5t-240 156t-153 237.5t-55 298z" />
<glyph horiz-adv-x="1515" d="M106 719q0 160 56.5 298t157 236t244.5 153.5t313 55.5q140 0 247.5 -33.5t204.5 -105.5v-287l-6 -4q-95 98 -203 142.5t-243 44.5q-219 0 -359.5 -136t-140.5 -358q0 -231 140 -370.5t357 -139.5q147 0 234 68v309l-428 -2v227h659v-698q-199 -148 -475 -148 q-168 0 -310 56.5t-240 156t-153 237.5t-55 298zM504 1827h174q3 -52 40.5 -90.5t92.5 -38.5t92.5 38.5t40.5 90.5h174q-3 -119 -89 -202t-218 -83t-218.5 83.5t-88.5 201.5z" />
<glyph horiz-adv-x="1515" d="M106 719q0 160 56.5 298t157 236t244.5 153.5t313 55.5q140 0 247.5 -33.5t204.5 -105.5v-287l-6 -4q-95 98 -203 142.5t-243 44.5q-219 0 -359.5 -136t-140.5 -358q0 -231 140 -370.5t357 -139.5q147 0 234 68v309l-428 -2v227h659v-698q-199 -148 -475 -148 q-168 0 -310 56.5t-240 156t-153 237.5t-55 298zM430 1548l250 277h274l265 -277h-248l-148 142l-147 -142h-246z" />
<glyph horiz-adv-x="1515" d="M106 719q0 160 56.5 298t157 236t244.5 153.5t313 55.5q140 0 247.5 -33.5t204.5 -105.5v-287l-6 -4q-95 98 -203 142.5t-243 44.5q-219 0 -359.5 -136t-140.5 -358q0 -231 140 -370.5t357 -139.5q147 0 234 68v309l-428 -2v227h659v-698q-199 -148 -475 -148 q-168 0 -310 56.5t-240 156t-153 237.5t-55 298zM655 -475q61 21 101 58.5t47 88.5q-10 -2 -27 -2q-50 0 -81 35t-31 84t37 87t96 38q62 0 100.5 -44.5t38.5 -111.5q0 -52 -13 -100t-43 -97.5t-87.5 -91t-137.5 -67.5v123z" />
<glyph horiz-adv-x="1595" d="M106 719q0 160 56.5 298t157 236t244.5 153.5t313 55.5q140 0 247.5 -33.5t204.5 -105.5v-287l-6 -4q-95 98 -203 142.5t-243 44.5q-219 0 -359.5 -136t-140.5 -358q0 -231 140 -370.5t357 -139.5q147 0 234 68v309l-428 -2v227h659v-698q-199 -148 -475 -148 q-168 0 -310 56.5t-240 156t-153 237.5t-55 298zM674 1696q0 73 50.5 120.5t127.5 47.5q74 0 125 -47.5t51 -120.5q0 -71 -51 -118.5t-125 -47.5q-77 0 -127.5 47t-50.5 119z" />
<glyph horiz-adv-x="1347" d="M190 0v1434h512q229 0 364.5 -113.5t135.5 -319.5q0 -160 -78 -257t-211 -140l338 -604h-295l-301 569h-213v-569h-252zM442 788h213q50 0 88 4t79 17t67.5 35t43.5 61t17 92q0 63 -21 106t-63 66t-92.5 32t-120.5 9h-211v-422z" />
<glyph horiz-adv-x="1347" d="M190 0v1434h512q229 0 364.5 -113.5t135.5 -319.5q0 -160 -78 -257t-211 -140l338 -604h-295l-301 569h-213v-569h-252zM440 1550l195 277h289l-242 -277h-242zM442 788h213q50 0 88 4t79 17t67.5 35t43.5 61t17 92q0 63 -21 106t-63 66t-92.5 32t-120.5 9h-211v-422z " />
<glyph horiz-adv-x="1347" d="M190 0v1434h512q229 0 364.5 -113.5t135.5 -319.5q0 -160 -78 -257t-211 -140l338 -604h-295l-301 569h-213v-569h-252zM240 1827h247l148 -139l147 139h246l-262 -277h-274zM442 788h213q50 0 88 4t79 17t67.5 35t43.5 61t17 92q0 63 -21 106t-63 66t-92.5 32t-120.5 9 h-211v-422z" />
<glyph horiz-adv-x="1347" d="M190 0v1434h512q229 0 364.5 -113.5t135.5 -319.5q0 -160 -78 -257t-211 -140l338 -604h-295l-301 569h-213v-569h-252zM442 788h213q50 0 88 4t79 17t67.5 35t43.5 61t17 92q0 63 -21 106t-63 66t-92.5 32t-120.5 9h-211v-422zM514 -475q61 21 100 58.5t48 88.5 q-10 -2 -27 -2q-50 0 -81.5 35t-31.5 84t37 87t96 38q62 0 101 -44.5t39 -111.5q0 -52 -13 -100t-43 -97.5t-87.5 -91t-137.5 -67.5v123z" />
<glyph horiz-adv-x="1286" d="M104 539q0 134 44 243.5t119 180t172 108t206 37.5q108 0 204.5 -37.5t171.5 -107.5t119 -180t44 -244t-44 -243.5t-119 -179.5t-171.5 -107.5t-204.5 -37.5q-109 0 -206 37.5t-172 107.5t-119 179.5t-44 243.5zM354 539q0 -155 81 -248.5t210 -93.5q128 0 208.5 93.5 t80.5 248.5q0 154 -81 250t-208 96q-128 0 -209.5 -96t-81.5 -250z" />
<glyph horiz-adv-x="1312" d="M111 541q0 158 55 286t160.5 203.5t242.5 75.5q234 0 332 -180l6 151h223v-1077h-223l-4 154q-40 -81 -124 -132t-206 -51q-139 0 -245.5 77t-161.5 206t-55 287zM358 541q0 -149 70 -251t190 -102q116 0 192.5 100.5t76.5 252.5q0 160 -74 256t-192 96 q-120 0 -191.5 -99.5t-71.5 -252.5z" />
<glyph horiz-adv-x="1312" d="M111 541q0 158 55 286t160.5 203.5t242.5 75.5q234 0 332 -180l6 151h223v-1077h-223l-4 154q-40 -81 -124 -132t-206 -51q-139 0 -245.5 77t-161.5 206t-55 287zM358 541q0 -149 70 -251t190 -102q116 0 192.5 100.5t76.5 252.5q0 160 -74 256t-192 96 q-120 0 -191.5 -99.5t-71.5 -252.5zM549 1200l188 326h262l-225 -326h-225z" />
<glyph horiz-adv-x="1312" d="M111 541q0 158 55 286t160.5 203.5t242.5 75.5q234 0 332 -180l6 151h223v-1077h-223l-4 154q-40 -81 -124 -132t-206 -51q-139 0 -245.5 77t-161.5 206t-55 287zM319 1518h191q3 -71 34.5 -111.5t92.5 -40.5t92.5 40.5t34.5 111.5h190q-3 -142 -91 -236t-226 -94 q-136 0 -225.5 94.5t-92.5 235.5zM358 541q0 -149 70 -251t190 -102q116 0 192.5 100.5t76.5 252.5q0 160 -74 256t-192 96q-120 0 -191.5 -99.5t-71.5 -252.5z" />
<glyph horiz-adv-x="1312" d="M111 541q0 158 55 286t160.5 203.5t242.5 75.5q234 0 332 -180l6 151h223v-1077h-223l-4 154q-40 -81 -124 -132t-206 -51q-139 0 -245.5 77t-161.5 206t-55 287zM281 1206l237 326h252l250 -326h-229l-140 172l-139 -172h-231zM358 541q0 -149 70 -251t190 -102 q116 0 192.5 100.5t76.5 252.5q0 160 -74 256t-192 96q-120 0 -191.5 -99.5t-71.5 -252.5z" />
<glyph horiz-adv-x="1312" d="M111 541q0 158 55 286t160.5 203.5t242.5 75.5q234 0 332 -180l6 151h223v-1077h-223l-4 154q-40 -81 -124 -132t-206 -51q-139 0 -245.5 77t-161.5 206t-55 287zM274 1382q0 63 41.5 102.5t104.5 39.5t103 -39.5t40 -102.5t-40 -102t-103 -39q-64 0 -105 39.5t-41 101.5 zM358 541q0 -149 70 -251t190 -102q116 0 192.5 100.5t76.5 252.5q0 160 -74 256t-192 96q-120 0 -191.5 -99.5t-71.5 -252.5zM721 1382q0 63 40 102.5t103 39.5t103.5 -39.5t40.5 -102.5t-40.5 -102t-103.5 -39t-103 39t-40 102z" />
<glyph horiz-adv-x="1312" d="M111 541q0 158 55 286t160.5 203.5t242.5 75.5q234 0 332 -180l6 151h223v-1077h-223l-4 154q-40 -81 -124 -132t-206 -51q-139 0 -245.5 77t-161.5 206t-55 287zM330 1526h262l188 -326h-227zM358 541q0 -149 70 -251t190 -102q116 0 192.5 100.5t76.5 252.5 q0 160 -74 256t-192 96q-120 0 -191.5 -99.5t-71.5 -252.5z" />
<glyph horiz-adv-x="1312" d="M111 541q0 158 55 286t160.5 203.5t242.5 75.5q234 0 332 -180l6 151h223v-1077h-223l-4 154q-40 -81 -124 -132t-206 -51q-139 0 -245.5 77t-161.5 206t-55 287zM289 1253v201h678v-201h-678zM358 541q0 -149 70 -251t190 -102q116 0 192.5 100.5t76.5 252.5 q0 160 -74 256t-192 96q-120 0 -191.5 -99.5t-71.5 -252.5z" />
<glyph horiz-adv-x="1312" d="M111 541q0 158 55 286t160.5 203.5t242.5 75.5q234 0 332 -180l6 151h223v-1077h3q-55 -24 -95.5 -64t-40.5 -90q0 -42 30.5 -68t76.5 -26q29 0 53 8v-139q-36 -10 -88 -10q-96 0 -162.5 46t-66.5 136q0 63 38 116.5t101 90.5h-72l-4 154q-40 -81 -124 -132t-206 -51 q-139 0 -245.5 77t-161.5 206t-55 287zM358 541q0 -149 70 -251t190 -102q116 0 192.5 100.5t76.5 252.5q0 160 -74 256t-192 96q-120 0 -191.5 -99.5t-71.5 -252.5z" />
<glyph horiz-adv-x="1312" d="M111 541q0 158 55 286t160.5 203.5t242.5 75.5q234 0 332 -180l6 151h223v-1077h-223l-4 154q-40 -81 -124 -132t-206 -51q-139 0 -245.5 77t-161.5 206t-55 287zM358 541q0 -149 70 -251t190 -102q116 0 192.5 100.5t76.5 252.5q0 160 -74 256t-192 96 q-120 0 -191.5 -99.5t-71.5 -252.5zM406 1366q0 97 69.5 158t173.5 61t173 -61t69 -158q0 -98 -68.5 -158.5t-173.5 -60.5t-174 60.5t-69 158.5zM563 1366q0 -39 23.5 -62.5t62.5 -23.5t61.5 23.5t22.5 62.5q0 38 -22.5 62t-61.5 24t-62.5 -24.5t-23.5 -61.5z" />
<glyph horiz-adv-x="1312" d="M111 541q0 158 55 286t160.5 203.5t242.5 75.5q234 0 332 -180l6 151h223v-1077h-223l-4 154q-40 -81 -124 -132t-206 -51q-139 0 -245.5 77t-161.5 206t-55 287zM299 1235v192q94 84 184 84q48 0 92.5 -15t72.5 -33t65.5 -33t74.5 -15q86 0 170 88v-192 q-89 -84 -182 -84q-56 0 -106 24t-97.5 48t-95.5 24q-100 0 -178 -88zM358 541q0 -149 70 -251t190 -102q116 0 192.5 100.5t76.5 252.5q0 160 -74 256t-192 96q-120 0 -191.5 -99.5t-71.5 -252.5z" />
<glyph horiz-adv-x="1091" d="M170 469h254v965h-254v-965zM176 1550l197 283h278l-248 -283h-227zM360 33v241q66 -57 148 -57q73 0 117.5 46.5t44.5 135.5v1035h252v-1084q0 -185 -92.5 -279t-241.5 -94q-139 0 -228 56zM680 1550l197 283h278l-248 -283h-227z" />
<glyph horiz-adv-x="815" d="M76 1028q0 185 90 303.5t242 118.5t238.5 -118t86.5 -304q0 -187 -86.5 -303.5t-238.5 -116.5q-154 0 -243 116.5t-89 303.5zM281 1028q0 -111 29 -169t98 -58q66 0 94 58t28 169q0 113 -28 172.5t-94 59.5q-69 0 -98 -59.5t-29 -172.5z" />
<glyph horiz-adv-x="552" d="M53 1032v217l246 185h152v-807h-191v575l-203 -170h-4z" />
<glyph horiz-adv-x="681" d="M86 627v170q22 22 62 61q94 92 133.5 132.5t70.5 86.5t31 78q1 55 -28.5 84t-84.5 29q-45 0 -92 -29t-80 -70l-4 2l-2 207q54 37 105 54.5t120 17.5q114 0 191.5 -64t77.5 -184q0 -30 -7.5 -60.5t-17.5 -55.5t-30.5 -55t-36 -50t-44 -50t-45.5 -46.5t-50 -48t-48 -45.5 h293v-164h-514z" />
<glyph horiz-adv-x="684" d="M94 666v188l4 2q89 -80 193 -80q56 0 93.5 24.5t37.5 65.5q0 35 -24 57t-55 30t-69 8h-53v151h53q132 0 132 82q0 44 -36.5 68t-88.5 24q-108 0 -181 -76l-6 2v181q105 57 223 57q120 0 198.5 -57.5t78.5 -167.5q0 -76 -39 -120t-88 -63q58 -16 100.5 -66t42.5 -136 q0 -111 -81.5 -171.5t-217.5 -60.5q-128 0 -217 58z" />
<glyph horiz-adv-x="741" d="M59 768v184l318 482h209v-504h96v-162h-96v-141h-189v141h-338zM231 930h179l2 276z" />
<glyph horiz-adv-x="722" d="M61 713l89 166h4q69 -88 174 -88q46 0 77 27t31 73t-28.5 73t-73.5 27q-52 0 -90 -41l-138 45l64 439h416v-172h-277l-16 -123q38 18 98 18q114 0 183 -75t67 -195q-3 -127 -86 -202t-223 -75q-157 0 -271 103z" />
<glyph horiz-adv-x="759" d="M94 895q0 104 58 197l206 342h213l-192 -291q48 6 63 6q99 0 169.5 -72t70.5 -188q0 -120 -81.5 -199.5t-213.5 -79.5q-130 0 -211.5 82.5t-81.5 202.5zM283 889q0 -52 27 -85.5t77 -33.5q53 0 80 34t27 85q0 52 -28 85.5t-79 33.5q-49 0 -76.5 -33.5t-27.5 -85.5z" />
<glyph horiz-adv-x="657" d="M59 1245v189h555v-160l-288 -647h-213l284 618h-338z" />
<glyph horiz-adv-x="759" d="M86 850q0 87 41.5 136.5t97.5 68.5q-47 17 -88 61.5t-41 116.5q0 97 75.5 157t209.5 60q135 0 211 -60t76 -157q0 -72 -41.5 -117t-89.5 -61q56 -17 98.5 -67.5t42.5 -137.5q0 -108 -82 -175t-215 -67t-214 67t-81 175zM274 874q0 -46 31.5 -74t75.5 -28q45 0 75.5 28 t30.5 74q0 50 -30 78.5t-76 28.5q-45 0 -76 -29t-31 -78zM285 1206q0 -38 26.5 -62t69.5 -24t68.5 24t25.5 62q0 42 -26 68t-68 26q-43 0 -69.5 -26.5t-26.5 -67.5z" />
<glyph horiz-adv-x="759" d="M74 1169q0 120 81.5 200.5t213.5 80.5q130 0 211.5 -83.5t81.5 -203.5q0 -103 -58 -196l-207 -340h-213l193 291q-36 -9 -64 -9q-99 0 -169 72t-70 188zM262 1169q0 -52 28 -85t79 -33q49 0 76.5 33t27.5 85t-27 85.5t-77 33.5q-53 0 -80 -34t-27 -85z" />
<glyph horiz-adv-x="815" d="M76 100q0 186 89.5 304t242.5 118q152 0 238.5 -117t86.5 -305q0 -187 -86.5 -302t-238.5 -115q-154 0 -243 115.5t-89 301.5zM281 100q0 -111 29 -169t98 -58q66 0 94 58t28 169q0 113 -28 172.5t-94 59.5q-69 0 -98 -59.5t-29 -172.5z" />
<glyph horiz-adv-x="552" d="M53 104v218l246 184h152v-807h-191v575l-203 -170h-4z" />
<glyph horiz-adv-x="681" d="M86 -131q25 25 60.5 60t55 54.5t46.5 47t41.5 43.5t32.5 36.5t27 34t18 29t12.5 28.5t3.5 25q1 55 -28.5 84t-84.5 29q-45 0 -92.5 -28t-79.5 -70l-4 4l-2 207q55 36 105.5 53.5t119.5 17.5q113 0 191 -65t78 -183q0 -41 -13.5 -82t-28.5 -70t-52 -72.5t-54.5 -61.5 t-67.5 -66t-63 -61h293v-162h-514v168z" />
<glyph horiz-adv-x="684" d="M94 -74l4 2q89 -80 193 -80q56 0 93.5 24.5t37.5 66.5q0 36 -24 58t-54.5 29t-69.5 7h-53v151h53q132 0 132 82q0 44 -36.5 68t-88.5 24q-109 0 -181 -75l-6 4v178q105 57 223 57q120 0 198.5 -57t78.5 -166q0 -77 -39 -121t-88 -63q59 -16 101 -66t42 -137 q0 -110 -81.5 -169.5t-217.5 -59.5q-127 0 -217 55v188z" />
<glyph horiz-adv-x="741" d="M59 27l318 479h209v-504h96v-162h-96v-141h-189v141h-338v187zM231 2h179l2 277z" />
<glyph horiz-adv-x="722" d="M61 -215l89 164h4q71 -86 174 -86q46 0 77 27t31 71q0 48 -28 75t-74 27q-53 0 -90 -40l-138 43l64 438h416v-170h-277l-16 -123q37 18 98 18q113 0 182.5 -75.5t67.5 -196.5q-3 -127 -86 -201.5t-223 -74.5q-156 0 -271 104z" />
<glyph horiz-adv-x="759" d="M94 -31q0 105 58 195l206 342h213l-192 -291q32 8 63 8q99 0 169.5 -72.5t70.5 -187.5q0 -120 -81.5 -200t-213.5 -80q-130 0 -211.5 83t-81.5 203zM283 -39q0 -50 27 -84.5t77 -34.5q53 0 80 34t27 85q0 52 -28 86.5t-79 34.5q-49 0 -76.5 -34t-27.5 -87z" />
<glyph horiz-adv-x="657" d="M59 317v189h555v-160l-288 -647h-213l284 618h-338z" />
<glyph horiz-adv-x="759" d="M86 -78q0 88 41.5 138t97.5 69q-27 8 -54 27.5t-51 60t-24 90.5q0 97 75.5 156t209.5 59q135 0 211 -59t76 -156q0 -73 -42 -118.5t-89 -59.5q56 -16 98.5 -67.5t42.5 -139.5q0 -106 -82 -172.5t-215 -66.5t-214 66.5t-81 172.5zM274 -53q0 -46 31.5 -74.5t75.5 -28.5 q45 0 75.5 28.5t30.5 74.5q0 49 -30 77.5t-76 28.5q-45 0 -76 -28.5t-31 -77.5zM285 279q0 -38 26.5 -62t69.5 -24t68.5 24t25.5 62q0 42 -26 69t-68 27t-69 -27t-27 -69z" />
<glyph horiz-adv-x="759" d="M74 242q0 120 81.5 200t213.5 80q130 0 211.5 -83t81.5 -203q0 -105 -58 -195l-207 -342h-213l193 291q-32 -8 -64 -8q-99 0 -169 72.5t-70 187.5zM262 244q0 -52 28 -86.5t79 -34.5q49 0 76.5 34t27.5 87q0 50 -27 84t-77 34q-53 0 -80 -33.5t-27 -84.5z" />
<glyph horiz-adv-x="815" d="M76 1329q0 186 89.5 304t242.5 118q152 0 238.5 -117t86.5 -305q0 -187 -86.5 -302.5t-238.5 -115.5q-154 0 -243 116t-89 302zM281 1329q0 -111 29 -169t98 -58q66 0 94 58t28 169q0 113 -28 172.5t-94 59.5q-69 0 -98 -59.5t-29 -172.5z" />
<glyph horiz-adv-x="552" d="M53 1333v217l246 185h152v-807h-191v575l-203 -170h-4z" />
<glyph horiz-adv-x="681" d="M86 930v168q25 25 60.5 60t55 54.5t46.5 47t41.5 43.5t32.5 36.5t27 34t18 29t12.5 28.5t3.5 25q1 55 -28.5 84t-84.5 29q-45 0 -92 -28.5t-80 -70.5l-4 5l-2 206q56 36 106.5 54t118.5 18q113 0 191 -65t78 -183q0 -41 -13.5 -82t-28.5 -70t-52 -72.5t-54.5 -61.5 t-67.5 -66t-63 -61h293v-162h-514z" />
<glyph horiz-adv-x="684" d="M94 967v188l4 2q89 -80 193 -80q56 0 93.5 24.5t37.5 65.5q0 36 -24 58t-55 29.5t-69 7.5h-53v151h53q132 0 132 82q0 44 -36.5 68t-88.5 24q-108 0 -181 -76l-6 5v178q105 57 223 57q120 0 198.5 -57t78.5 -166q0 -54 -23.5 -95.5t-49 -60t-54.5 -29.5q59 -16 101 -65.5 t42 -136.5q0 -110 -81.5 -170t-217.5 -60q-126 0 -217 56z" />
<glyph horiz-adv-x="741" d="M59 1069v186l318 480h209v-504h96v-162h-96v-141h-189v141h-338zM231 1231h179l2 276z" />
<glyph horiz-adv-x="722" d="M61 1014l89 164h4q71 -86 174 -86q46 0 77 27t31 71q0 48 -28 75t-74 27q-52 0 -90 -41l-138 43l64 439h416v-170h-277l-16 -123q38 18 98 18q113 0 182.5 -75.5t67.5 -196.5q-3 -127 -86 -202t-223 -75q-155 0 -271 105z" />
<glyph horiz-adv-x="759" d="M94 1198q0 105 58 195l206 342h213l-192 -291q32 8 63 8q99 0 169.5 -72.5t70.5 -187.5q0 -120 -81.5 -200.5t-213.5 -80.5q-130 0 -211.5 83.5t-81.5 203.5zM283 1190q0 -50 27 -84.5t77 -34.5q53 0 80 34t27 85q0 52 -28 86.5t-79 34.5q-49 0 -76.5 -34t-27.5 -87z" />
<glyph horiz-adv-x="657" d="M59 1546v189h555v-160l-288 -647h-213l284 618h-338z" />
<glyph horiz-adv-x="759" d="M86 1151q0 88 41.5 138t97.5 69q-27 8 -54 27.5t-51 60t-24 90.5q0 97 75.5 156t209.5 59q135 0 211 -59t76 -156q0 -73 -42 -118.5t-89 -59.5q56 -16 98.5 -67.5t42.5 -139.5q0 -106 -82 -173t-215 -67t-214 67t-81 173zM274 1176q0 -46 31.5 -74.5t75.5 -28.5 q45 0 75.5 28.5t30.5 74.5q0 49 -30 77.5t-76 28.5q-45 0 -76 -28.5t-31 -77.5zM285 1507q0 -38 26.5 -62t69.5 -24t68.5 24t25.5 62q0 42 -26 69.5t-68 27.5t-69 -27.5t-27 -69.5z" />
<glyph horiz-adv-x="774" d="M104 1470q0 120 81 200.5t214 80.5q129 0 211 -83.5t82 -203.5q0 -106 -57 -194l-207 -342h-215l195 291q-36 -9 -66 -9q-97 0 -167.5 72.5t-70.5 187.5zM293 1473q0 -52 28 -86.5t78 -34.5q49 0 76 34t27 87q0 50 -27 84t-76 34q-54 0 -80 -33.5t-26 -84.5z" />
<glyph horiz-adv-x="1198" d="M63 717q0 216 63.5 383.5t186 264.5t287.5 97q164 0 286.5 -97t185.5 -264.5t63 -383.5q0 -218 -63 -386t-185 -264t-287 -96q-166 0 -288.5 96t-185.5 264t-63 386zM322 717q0 -234 69.5 -365t208.5 -131q140 0 208.5 130.5t68.5 365.5q0 233 -68.5 364t-208.5 131 q-139 0 -208.5 -131.5t-69.5 -363.5z" />
<glyph horiz-adv-x="1198" d="M139 0v219h375v914l-362 -302l-9 5v284l396 314h225v-1215h299v-219h-924z" />
<glyph horiz-adv-x="1198" d="M160 0v266l258 238q169 155 252 265.5t84 215.5q1 106 -65 166.5t-175 60.5q-183 0 -330 -161l-8 2v286q163 123 371 123q206 0 340.5 -118t134.5 -326q0 -161 -84.5 -297.5t-271.5 -302.5l-220 -197h598v-221h-884z" />
<glyph horiz-adv-x="1198" d="M158 86v274l6 2q152 -159 377 -159q112 0 183 56t71 161q0 71 -39.5 116.5t-101.5 63.5t-146 18h-111v224h111q107 0 179.5 47.5t72.5 140.5q0 97 -69.5 148t-182.5 51q-88 0 -172.5 -37t-147.5 -100l-6 4v260q159 106 363 106q210 0 340.5 -100t130.5 -277 q0 -222 -201 -327q104 -46 171 -137.5t67 -227.5q-1 -102 -40.5 -183.5t-107.5 -133t-156 -78.5t-188 -27q-240 0 -403 115z" />
<glyph horiz-adv-x="1198" d="M61 283v186l621 965h268v-928h183v-223h-183v-283h-245v283h-644zM340 506h381l2 594z" />
<glyph horiz-adv-x="1198" d="M68 240l180 161l10 2q109 -196 299 -196q64 0 121 26t97 84t40 138q0 83 -41.5 144t-98.5 87.5t-118 26.5q-137 0 -227 -97l-185 86l107 732h725v-228l-528 2l-48 -317q81 43 209 43q94 0 178.5 -33.5t149 -94t101 -152.5t34.5 -201q-3 -222 -144.5 -352t-371.5 -130 q-301 0 -489 269z" />
<glyph horiz-adv-x="1198" d="M104 467q0 182 113 362l367 605h293l-349 -537q83 27 164 27q85 0 162 -32t136.5 -89t94.5 -144t35 -190q0 -102 -34.5 -192.5t-98 -159t-160.5 -108.5t-215 -40q-152 0 -269.5 69.5t-178 182t-60.5 246.5zM362 461q0 -51 15 -98t44 -86.5t78.5 -63t112.5 -23.5 q124 0 187 79t63 196t-68 193.5t-182 76.5q-113 0 -181.5 -77t-68.5 -197z" />
<glyph horiz-adv-x="1198" d="M127 1190v244h942v-213l-565 -1221h-289l571 1190h-659z" />
<glyph horiz-adv-x="1198" d="M86 412q0 125 68 214t157 134q-198 116 -198 313q0 169 131.5 279t353.5 110t354.5 -110.5t132.5 -278.5q0 -110 -51.5 -182t-148.5 -131q103 -49 165 -136.5t62 -211.5q0 -196 -142 -317.5t-374 -121.5q-229 0 -369.5 121.5t-140.5 317.5zM346 424q0 -104 70.5 -169 t179.5 -65q111 0 181.5 64.5t70.5 169.5q0 104 -69 171t-183 67q-113 0 -181.5 -67t-68.5 -171zM373 1053q0 -91 62.5 -147t162.5 -56q101 0 162 56t61 147q0 92 -61.5 151.5t-161.5 59.5q-99 0 -162 -60t-63 -151z" />
<glyph horiz-adv-x="1198" d="M92 971q0 101 34.5 190t98 156.5t160.5 107t215 39.5q114 0 211 -40.5t161 -108.5t100 -158t36 -190q0 -183 -113 -363l-377 -604h-292l352 526q-60 -16 -141 -16q-120 0 -220.5 55t-162.5 161.5t-62 244.5zM350 969q0 -118 67.5 -194.5t182.5 -76.5q113 0 181.5 77 t68.5 198q0 52 -14.5 99t-44 86t-79 62t-112.5 23q-125 0 -187.5 -77.5t-62.5 -196.5z" />
<glyph horiz-adv-x="821" d="M80 403q0 186 89.5 304t242.5 118q152 0 238.5 -117t86.5 -305q0 -187 -86.5 -302t-238.5 -115q-154 0 -243 115.5t-89 301.5zM285 403q0 -111 29 -169t98 -58q66 0 94.5 58.5t28.5 168.5q0 232 -123 232q-69 0 -98 -59.5t-29 -172.5z" />
<glyph horiz-adv-x="559" d="M57 406v217l246 184h150v-807h-189v575l-203 -169h-4z" />
<glyph horiz-adv-x="686" d="M90 2v168q25 25 60.5 60t55 54.5t46.5 47t41.5 43.5t32.5 36.5t27 34t18 29t12.5 28.5t3.5 25q1 55 -28.5 84t-84.5 29q-45 0 -92.5 -28t-79.5 -70l-4 4l-2 207q55 36 106 53.5t120 17.5q112 0 190 -64.5t78 -182.5q0 -35 -8 -68.5t-26.5 -66.5t-34.5 -58t-48 -59.5 t-50.5 -53t-57.5 -56t-54 -52.5h293v-162h-514z" />
<glyph horiz-adv-x="688" d="M98 43v188l4 2q85 -79 193 -79q56 0 93.5 23.5t37.5 64.5q0 36 -23.5 58t-54 29t-69.5 7h-54v151h54q54 0 92.5 19t38.5 65q0 43 -37 67t-88 24q-110 0 -181 -74l-6 2v178q55 32 106 45.5t118 13.5q120 0 198 -57.5t78 -167.5q0 -41 -12.5 -74.5t-34 -54.5t-41 -33 t-41.5 -20q59 -16 102 -66.5t43 -136.5q0 -111 -82 -171t-217 -60q-129 0 -217 57z" />
<glyph horiz-adv-x="749" d="M63 141v187l318 479h209v-504h96v-162h-96v-141h-191v141h-336zM233 303h181l2 277z" />
<glyph horiz-adv-x="729" d="M63 88l91 164h4q71 -86 174 -86q46 0 77 27t31 71q0 46 -28.5 73.5t-73.5 27.5q-59 0 -90 -39l-137 43l63 438h416v-170h-277l-16 -123q37 18 98 18q113 0 182.5 -75.5t67.5 -196.5q-3 -127 -86 -201.5t-223 -74.5q-155 0 -273 104z" />
<glyph horiz-adv-x="768" d="M98 272q0 101 56 197l208 340h213l-192 -291q28 8 63 8q99 0 168.5 -72t69.5 -188q0 -120 -80.5 -200t-212.5 -80q-130 0 -211.5 83t-81.5 203zM287 266q0 -52 27 -85.5t77 -33.5q53 0 80 34t27 85q0 52 -28 85.5t-79 33.5q-49 0 -76.5 -33.5t-27.5 -85.5z" />
<glyph horiz-adv-x="663" d="M63 618v189h555v-160l-288 -647h-213l282 618h-336z" />
<glyph horiz-adv-x="763" d="M90 227q0 87 41.5 136.5t97.5 68.5q-47 17 -89 61.5t-42 116.5q0 97 76.5 157t210.5 60q135 0 211 -60t76 -157q0 -72 -41.5 -117t-89.5 -61q56 -16 98.5 -67.5t42.5 -137.5q0 -108 -82 -174.5t-215 -66.5t-214 66.5t-81 174.5zM279 250q0 -46 30.5 -74.5t75.5 -28.5 t76 28.5t31 74.5q0 51 -30.5 79.5t-76.5 28.5q-45 0 -75.5 -29t-30.5 -79zM289 582q0 -37 27 -61.5t69 -24.5t68 24.5t26 61.5q0 42 -26 69t-68 27t-69 -27t-27 -69z" />
<glyph horiz-adv-x="768" d="M78 547q0 120 80.5 199t212.5 79q131 0 212 -82t81 -202q0 -101 -56 -197l-209 -342h-213l195 291q-48 -6 -66 -6q-98 0 -167.5 72t-69.5 188zM266 547q0 -52 27.5 -85.5t77.5 -33.5q49 0 76.5 33.5t27.5 85.5t-27 85.5t-77 33.5q-52 0 -78.5 -34t-26.5 -85z" />
<glyph horiz-adv-x="643" d="M156 1292q0 -75 48 -122.5t122 -47.5t121 47.5t47 122.5q0 74 -47 121t-121 47t-122 -47.5t-48 -120.5zM201 -4h252l-15 975h-225z" />
<glyph horiz-adv-x="903" d="M41 346q0 67 16.5 121.5t43 91t59 67.5t64.5 58.5t59 56t44 67.5t17 87v82h229v-96q-1 -66 -17.5 -120t-41.5 -90.5t-55 -66.5t-60 -55.5t-54.5 -51t-40 -59t-15.5 -73.5q0 -69 45 -112.5t112 -45.5q154 -6 230 184h4l205 -131q-139 -278 -441 -278q-94 1 -171.5 30 t-127.5 79t-77 115.5t-27 139.5zM279 1303q0 75 47.5 122.5t119.5 47.5q75 0 123.5 -47.5t48.5 -122.5q0 -73 -48.5 -120.5t-123.5 -47.5q-72 0 -119.5 47.5t-47.5 120.5z" />
<glyph horiz-adv-x="847" d="M90 631v250q197 0 197 161v338q0 197 94 275t295 78h69v-195h-75q-90 0 -132 -54.5t-42 -146.5v-329q0 -62 -14.5 -108t-35 -71.5t-52 -41.5t-57 -21.5t-58.5 -7.5q33 -1 58.5 -5.5t57 -20t52 -40.5t35 -72t14.5 -110v-365q0 -202 174 -202h75v-195h-69q-201 0 -295 78.5 t-94 275.5v371q0 86 -51 122t-146 36z" />
<glyph horiz-adv-x="847" d="M109 -57h75q93 0 138 55t43 147l-7 357q-2 66 12.5 114t35.5 74t54 42t58.5 20.5t59.5 5.5q-33 2 -59 7.5t-58 22t-53 43t-35.5 74t-14.5 111.5v321q0 201 -174 201h-75v195h71q201 0 294 -78t93 -275v-329q0 -170 197 -170v-250q-94 0 -145.5 -37.5t-51.5 -128.5v-363 q0 -197 -93.5 -275.5t-293.5 -78.5h-71v195z" />
<glyph horiz-adv-x="745" d="M201 -250v1983h475v-195h-244v-1593h244v-195h-475z" />
<glyph horiz-adv-x="745" d="M70 -55h243v1593h-243v195h473v-1983h-473v195z" />
<glyph horiz-adv-x="858" d="M117 743q1 288 109.5 546t301.5 444h240q-215 -228 -312.5 -472t-97.5 -518q0 -276 97 -520t313 -473h-240q-194 186 -302 444t-109 549z" />
<glyph horiz-adv-x="858" d="M84 -250q218 230 317 474t99 519q0 273 -99.5 517t-316.5 473h246q193 -186 301.5 -444t109.5 -546q-1 -291 -109 -549t-302 -444h-246z" />
<glyph horiz-adv-x="2187" d="M98 602v223h1989v-223h-1989z" />
<glyph horiz-adv-x="1163" d="M98 602v223h965v-223h-965z" />
<glyph horiz-adv-x="813" d="M98 602v223h615v-223h-615z" />
<glyph horiz-adv-x="1345" d="M111 610v205l481 334v-236l-301 -198l301 -201v-233zM741 610v205l484 334v-236l-303 -198l303 -201v-233z" />
<glyph horiz-adv-x="1331" d="M119 281v233l303 201l-303 198v236l483 -334v-205zM733 281v233l303 201l-303 198v236l484 -334v-205z" />
<glyph horiz-adv-x="714" d="M111 610v205l483 334v-236l-303 -198l303 -201v-233z" />
<glyph horiz-adv-x="714" d="M125 281v233l303 201l-303 198v236l483 -334v-205z" />
<glyph horiz-adv-x="2029" d="M100 743q0 202 70.5 374.5t194 291t293.5 185.5t366 67q274 0 481 -113t318.5 -319t111.5 -477q0 -240 -130.5 -397.5t-323.5 -157.5q-137 0 -206 58t-83 169q-30 -78 -109 -133t-202 -55q-117 0 -204.5 71.5t-124.5 189t-15 251.5q34 208 160 337t302 129 q96 0 165.5 -46.5t92.5 -127.5l25 140h193l-95 -594q-15 -93 17 -149t94 -56q93 0 162 108t69 263q0 162 -52 297t-144.5 228t-221.5 144.5t-280 51.5q-145 0 -273 -53.5t-221.5 -147.5t-147.5 -231.5t-54 -297.5q0 -178 53.5 -319t148.5 -230t221 -135.5t275 -46.5 q138 0 256 43v-211q-130 -30 -256 -30q-197 0 -366 63.5t-293.5 180t-195.5 293t-71 392.5zM758 727q-18 -124 24 -203.5t136 -79.5t166.5 80.5t89.5 204.5q17 130 -26 205.5t-136 75.5q-97 0 -165 -77.5t-89 -205.5z" />
<glyph horiz-adv-x="688" d="M90 1550l195 277h288l-241 -277h-242z" />
<glyph horiz-adv-x="837" d="M102 1827h174q3 -52 41.5 -90.5t94.5 -38.5q55 0 91.5 38.5t41.5 90.5h172q-2 -118 -88 -201.5t-217 -83.5q-132 0 -219.5 83.5t-90.5 201.5z" />
<glyph horiz-adv-x="989" d="M84 1827h248l147 -139l148 139h245l-262 -277h-276z" />
<glyph horiz-adv-x="929" d="M84 1548l250 277h276l262 -277h-245l-148 142l-147 -142h-248z" />
<glyph horiz-adv-x="925" d="M102 1688q0 64 40.5 103.5t105.5 39.5q63 0 102 -39.5t39 -103.5q0 -62 -39 -102t-102 -40q-64 0 -105 40t-41 102zM547 1688q0 64 40 103.5t105 39.5q63 0 102.5 -39.5t39.5 -103.5q0 -62 -39.5 -102t-102.5 -40q-64 0 -104.5 40t-40.5 102z" />
<glyph horiz-adv-x="530" d="M94 1694q0 73 50 119.5t126 46.5t127.5 -46.5t51.5 -119.5q0 -71 -51.5 -118.5t-127.5 -47.5q-75 0 -125.5 47t-50.5 119z" />
<glyph horiz-adv-x="688" d="M90 1827h266l195 -277h-219z" />
<glyph horiz-adv-x="946" d="M94 1550l137 277h224l-164 -277h-197zM461 1550l137 277h221l-162 -277h-196z" />
<glyph horiz-adv-x="882" d="M102 1591v201h678v-201h-678z" />
<glyph horiz-adv-x="694" d="M119 1714q0 88 61 144.5t160 56.5t159 -56t60 -145t-60 -145t-159 -56t-160 56.5t-61 144.5zM262 1714q0 -33 22 -56.5t56 -23.5t56 23.5t22 56.5t-22 56.5t-56 23.5t-56 -23.5t-22 -56.5z" />
<glyph horiz-adv-x="854" d="M90 1606v194q94 84 184 84q49 0 93.5 -15t72.5 -33t66.5 -33t75.5 -15q86 0 170 88v-195q-92 -82 -185 -82q-45 0 -86.5 15t-69 33.5t-66 33.5t-77.5 15q-101 0 -178 -90z" />
<glyph horiz-adv-x="489" d="M113 1186l18 444h211l-51 -444h-178z" />
<glyph horiz-adv-x="1228" />
<glyph horiz-adv-x="1697" />
</font>
</defs>
</svg>
